<svg xmlns="http://www.w3.org/2000/svg" width="25" height="22" viewBox="0 0 25 22"><g transform="translate(-1.001 -34.136)"><g transform="translate(1.001 34.136)"><g transform="translate(0 0)"><path d="M24.75,47.734V45.74a1.432,1.432,0,0,0,.271-.044,1.321,1.321,0,0,0,.883-.841A1.7,1.7,0,0,0,24.263,42.6h-.03a11.037,11.037,0,0,0-21.464,0h-.03A1.7,1.7,0,0,0,1.1,44.854a1.32,1.32,0,0,0,.883.842,1.438,1.438,0,0,0,.272.045v1.994a1.691,1.691,0,0,0,0,3.264v2.6a2.523,2.523,0,0,0,2.5,2.539h17.5a2.523,2.523,0,0,0,2.5-2.539V51a1.691,1.691,0,0,0,0-3.264ZM13.5,34.982A10.308,10.308,0,0,1,23.377,42.6H3.624A10.308,10.308,0,0,1,13.5,34.982Zm-11.289,9.9a.48.48,0,0,1-.33-.312.845.845,0,0,1-.046-.327.887.887,0,0,1,.9-.8H24.263a.887.887,0,0,1,.9.8.851.851,0,0,1-.046.328.48.48,0,0,1-.33.311.672.672,0,0,1-.443-.033c-.012,0-.024-.008-.035-.013a.717.717,0,0,1-.119-.074l-.017-.011-.011-.008a2.113,2.113,0,0,0-.235-.159l-.066-.037a2.113,2.113,0,0,0-.263-.122h0a2.106,2.106,0,0,0-1.159-.093,2.044,2.044,0,0,0-1.385,1.02,1.212,1.212,0,0,1-1.035.627h0a1.456,1.456,0,0,1-1.162-.645,2.275,2.275,0,0,0-.163-.231,2.225,2.225,0,0,0-.169-.186l-.015-.016a2.116,2.116,0,0,0-1.457-.606h-.024c-.018,0-.036,0-.054,0a2.036,2.036,0,0,0-1.752,1.062,2.189,2.189,0,0,1-1.72.629,3.15,3.15,0,0,1-.336-.02l-.042-.005a2.666,2.666,0,0,1-1.066-.337.794.794,0,0,1-.275-.266,2.036,2.036,0,0,0-1.752-1.062H9.975c-.05,0-.1.006-.147.01-.033,0-.066,0-.1.006-.065.008-.128.02-.191.034-.027.006-.054.009-.08.016-.062.016-.122.037-.183.058-.026.009-.054.017-.08.027-.055.022-.108.049-.161.076-.029.015-.06.027-.088.043-.046.026-.09.057-.134.086s-.066.041-.1.064-.074.062-.11.093-.069.056-.1.087-.063.068-.094.1-.066.068-.1.106-.075.1-.111.158c-.018.026-.038.05-.054.077h0a1.455,1.455,0,0,1-.189.24c-.016.017-.031.034-.048.05a1.307,1.307,0,0,1-.211.162h0c-.026.017-.053.031-.08.045a1.245,1.245,0,0,1-.22.091l-.011,0-.069.017a1.291,1.291,0,0,1-.261.034H7.049a.878.878,0,0,1-.1,0c-.012,0-.024,0-.036-.006l-.01,0a1.208,1.208,0,0,1-.879-.612,2.044,2.044,0,0,0-1.385-1.02,2.106,2.106,0,0,0-.484-.04,2.106,2.106,0,0,0-1.323.459A.694.694,0,0,1,2.211,44.883ZM18.378,47.8a.413.413,0,0,0-.295-.124H12.251V46.63c.028.009.057.015.086.023.081.024.161.048.242.066l.019,0a4.315,4.315,0,0,0,.9.1h.071a2.912,2.912,0,0,0,2.447-1.063,1.2,1.2,0,0,1,1.007-.624,1.36,1.36,0,0,1,.212.026c.032.005.066.006.1.014a1.322,1.322,0,0,1,.576.317l.01.008a1.391,1.391,0,0,1,.225.279,2.126,2.126,0,0,0,1.881,1.044l.021,0a2.053,2.053,0,0,0,1.8-1.06,1.2,1.2,0,0,1,1.062-.625h0a1.275,1.275,0,0,1,.212.027c.033.007.065.018.1.028a1.265,1.265,0,0,1,.149.054c.026.011.052.023.077.036a1.286,1.286,0,0,1,.209.132,1.543,1.543,0,0,0,.259.168v2.09H20.584a.413.413,0,0,0-.295.124.426.426,0,0,0-.122.3v2.961a.833.833,0,1,1-1.667,0V48.1A.426.426,0,0,0,18.378,47.8Zm-.711.722v1.692H12.251V48.52Zm-8.333-.846a.42.42,0,0,0-.417.423.833.833,0,1,1-1.667,0V46.817a2.05,2.05,0,0,0,.381-.081h0l.047-.015h0c.066-.022.13-.047.194-.075l.007,0c.025-.011.05-.022.072-.033l.02-.011c.046-.024.091-.05.136-.077l.037-.022.063-.039.021-.016c.039-.028.076-.058.114-.088l.038-.03c.022-.018.044-.036.065-.055l.018-.018.046-.046c.03-.031.061-.064.1-.1.017-.018.035-.036.051-.057l0-.007a2.3,2.3,0,0,0,.182-.253,1.336,1.336,0,0,1,1.154-.647,1.213,1.213,0,0,1,1.045.628,1.374,1.374,0,0,0,.185.254c.032.036.068.068.1.1s.047.05.074.073v6.134a.833.833,0,1,1-1.667,0V48.1A.42.42,0,0,0,9.334,47.674Zm-2.917-.937v.937H3.084v-2.06a1.475,1.475,0,0,0,.328-.2,1.279,1.279,0,0,1,.746-.276,1.29,1.29,0,0,1,.239.022,1.2,1.2,0,0,1,.822.6A2.027,2.027,0,0,0,6.417,46.737Zm-3.75,3.475a.846.846,0,0,1,0-1.692h3.8a1.689,1.689,0,0,0,.057.167c.01.027.017.055.028.082a1.7,1.7,0,0,0,.142.266c.012.019.028.035.041.053a1.692,1.692,0,0,0,.148.181c.024.026.051.048.077.072a1.678,1.678,0,0,0,.149.125c.031.023.063.043.1.064a1.659,1.659,0,0,0,.167.092c.034.017.068.033.1.047a1.64,1.64,0,0,0,.2.062c.032.008.063.019.1.025a1.614,1.614,0,0,0,1.146-.2v.65H2.668ZM23.917,53.6A1.682,1.682,0,0,1,22.25,55.29H4.751A1.682,1.682,0,0,1,3.084,53.6V51.059H8.917v1.269a1.667,1.667,0,1,0,3.333,0v-1.27h5.417a1.667,1.667,0,1,0,3.333,0h2.917V53.6Zm.417-3.385H21V48.52h3.333a.846.846,0,0,1,0,1.692Z" transform="translate(-1.001 -34.136)" fill="#45484d"/><path d="M189.672,76.975l-.846.846a.423.423,0,1,0,.6.6l.846-.846a.423.423,0,0,0-.6-.6Z" transform="translate(-179.545 -74.736)" fill="#45484d"/><path d="M411.03,411.317a.423.423,0,0,0,.3-.124l.846-.846a.423.423,0,0,0-.6-.6l-.846.846a.423.423,0,0,0,.3.722Z" transform="translate(-390.684 -391.009)" fill="#45484d"/><path d="M87.272,401.242l-.846.846a.423.423,0,1,0,.6.6l.846-.846a.423.423,0,0,0-.6-.6Z" transform="translate(-82.14 -382.926)" fill="#45484d"/><path d="M232.338,145.242l-.846.846a.423.423,0,1,0,.6.6l.846-.846a.423.423,0,0,0-.6-.6Z" transform="translate(-220.13 -139.618)" fill="#45484d"/><path d="M283.37,94.042a.423.423,0,0,0-.6.6l.846.846a.423.423,0,0,0,.6-.6Z" transform="translate(-268.913 -90.956)" fill="#45484d"/><path d="M129.77,128.175a.423.423,0,0,0-.6.6l.846.846a.423.423,0,0,0,.6-.6Z" transform="translate(-122.805 -123.397)" fill="#45484d"/><path d="M274.836,401.242a.423.423,0,0,0-.6.6l.846.846a.423.423,0,0,0,.6-.6Z" transform="translate(-260.795 -382.926)" fill="#45484d"/><path d="M351.636,136.709a.423.423,0,0,0-.6.6l.846.846a.423.423,0,0,0,.6-.6Z" transform="translate(-333.85 -131.508)" fill="#45484d"/></g></g></g></svg>