<svg xmlns="http://www.w3.org/2000/svg" width="23" height="22" viewBox="0 0 23 22"><g transform="translate(0 -0.006)"><path d="M22.055,3.046,18.082.425a1.91,1.91,0,0,0-1.67-.358L1.063,4.566A1.182,1.182,0,0,0,0,5.764v2.9A1.2,1.2,0,0,0,.767,9.793v.9A1.139,1.139,0,0,0,0,11.764V14.8a1.139,1.139,0,0,0,.767,1.068v.9A1.2,1.2,0,0,0,0,17.9v2.9a1.181,1.181,0,0,0,1.15,1.205H20.316a1.181,1.181,0,0,0,1.15-1.207V17.9a1.2,1.2,0,0,0-.767-1.131v-.9a1.139,1.139,0,0,0,.767-1.068V12.077a1.146,1.146,0,0,0,.575.05A1.179,1.179,0,0,0,23,10.959V4.678a1.88,1.88,0,0,0-.945-1.632ZM.767,5.764a.425.425,0,0,1,.383-.449H14.183v.379a1.15,1.15,0,0,0,2.3,0V5.315h1.15V6.453a1.15,1.15,0,0,0,2.3,0V5.315h.383a.425.425,0,0,1,.383.448V9.108H1.15A.426.426,0,0,1,.767,8.66Zm.767,4.1H20.7v.759H1.533Zm18.4,6.07V16.7H1.533v-.759ZM20.7,20.8a.425.425,0,0,1-.383.448H1.15A.425.425,0,0,1,.767,20.8V17.9a.419.419,0,0,1,.383-.448H13.1a1.113,1.113,0,0,0-.055.18.377.377,0,0,0,.114.371.386.386,0,0,0,.384.078.381.381,0,0,0,.252-.3.388.388,0,0,1,.057-.134.382.382,0,0,1,.243-.162.386.386,0,0,1,.153,0,.393.393,0,0,1,.136.056.381.381,0,0,1,.105.1.37.37,0,0,1,.059.139.363.363,0,0,1,0,.152.372.372,0,0,1-.056.133.387.387,0,0,1-.1.1.379.379,0,0,1-.14.059.38.38,0,0,0,.153.743,1.147,1.147,0,0,0,.731-.487,1.133,1.133,0,0,0,.168-.854,1.092,1.092,0,0,0-.059-.182h5.077a.419.419,0,0,1,.383.448Zm0-6a.381.381,0,0,1-.383.379H5.7a1.128,1.128,0,0,0-.613-1.43.387.387,0,0,0-.388.035.378.378,0,0,0,.082.66.384.384,0,0,1,.12.083.378.378,0,0,1,.077.417.384.384,0,0,1-.208.2.492.492,0,0,1-.15.028.382.382,0,0,1-.268-.114.373.373,0,0,1-.108-.269.377.377,0,0,0-.109-.27.384.384,0,0,0-.27-.115H3.858a.381.381,0,0,0-.383.374,1.119,1.119,0,0,0,.069.4H1.15A.381.381,0,0,1,.767,14.8V11.764a.381.381,0,0,1,.383-.379H20.7Zm1.533-3.84a.418.418,0,0,1-.317.42A.386.386,0,0,1,21.6,11.3a.378.378,0,0,1-.137-.291V5.694a1.144,1.144,0,0,0-1.15-1.138h-.383a.763.763,0,0,0-.767.759V6.453a.383.383,0,0,1-.767,0V5.315a.763.763,0,0,0-.767-.759h-1.15a.763.763,0,0,0-.767.759v.379a.383.383,0,0,1-.767,0V5.315a.763.763,0,0,0-.767-.759H3.8L16.617.8a1.137,1.137,0,0,1,1.01.237L21.652,3.69a1.136,1.136,0,0,1,.581.988Zm0,0" transform="translate(0)" fill="#45484d"/><path d="M271.494,68.215H264.93a.386.386,0,0,0,0,.772h6.565a.386.386,0,1,0,0-.772Zm0,0" transform="translate(-252.701 -65.122)" fill="#45484d"/><path d="M51.552,138.461a1.158,1.158,0,0,0,1.887-.367.386.386,0,1,0-.711-.3.391.391,0,0,1-.083.124.386.386,0,0,1-.546,0,.391.391,0,0,1-.083-.123.386.386,0,0,1,.356-.536.386.386,0,1,0,0-.772,1.158,1.158,0,0,0-.82,1.977Zm0,0" transform="translate(-48.896 -130.423)" fill="#45484d"/><path d="M389.127,274.772a1.159,1.159,0,1,0,0-2.148.386.386,0,0,0,.29.716.392.392,0,0,1,.291,0,.386.386,0,1,1-.419.631.386.386,0,0,0-.545.547A1.158,1.158,0,0,0,389.127,274.772Zm0,0" transform="translate(-371.191 -260.443)" fill="#45484d"/><path d="M122.228,410.671a.386.386,0,0,0-.51.2.386.386,0,0,1-.085.121.391.391,0,0,1-.124.081.373.373,0,0,1-.151.028.385.385,0,0,1-.348-.541.4.4,0,0,1,.085-.121.386.386,0,0,1,.124-.081.38.38,0,0,1,.146-.031h.014a.386.386,0,0,0,.007-.772,1.256,1.256,0,0,0-.453.083,1.159,1.159,0,0,0,.412,2.233h.021a1.151,1.151,0,0,0,.432-.083,1.163,1.163,0,0,0,.627-.605A.386.386,0,0,0,122.228,410.671Zm0,0" transform="translate(-114.811 -391.406)" fill="#45484d"/><path d="M145.847,136.871a.386.386,0,1,1-.386-.386A.386.386,0,0,1,145.847,136.871Zm0,0" transform="translate(-138.56 -130.415)" fill="#45484d"/><path d="M299.448,171a.386.386,0,1,1-.386-.386A.386.386,0,0,1,299.448,171Zm0,0" transform="translate(-285.263 -163.031)" fill="#45484d"/><path d="M256.78,145.4a.386.386,0,1,1-.386-.386A.386.386,0,0,1,256.78,145.4Zm0,0" transform="translate(-244.511 -138.567)" fill="#45484d"/><path d="M179.979,171a.386.386,0,1,1-.386-.386A.386.386,0,0,1,179.979,171Zm0,0" transform="translate(-171.159 -163.031)" fill="#45484d"/><path d="M51.979,281.937a.386.386,0,1,1-.386-.386A.386.386,0,0,1,51.979,281.937Zm0,0" transform="translate(-48.89 -269.036)" fill="#45484d"/><path d="M145.847,273.4a.386.386,0,1,1-.386-.386A.386.386,0,0,1,145.847,273.4Zm0,0" transform="translate(-138.56 -260.88)" fill="#45484d"/><path d="M171.448,307.535a.386.386,0,1,1-.386-.386A.386.386,0,0,1,171.448,307.535Zm0,0" transform="translate(-163.011 -293.497)" fill="#45484d"/><path d="M350.647,281.937a.386.386,0,1,1-.386-.386A.386.386,0,0,1,350.647,281.937Zm0,0" transform="translate(-334.162 -269.036)" fill="#45484d"/><path d="M256.78,290.468a.386.386,0,1,1-.386-.386A.386.386,0,0,1,256.78,290.468Zm0,0" transform="translate(-244.511 -277.188)" fill="#45484d"/><path d="M410.382,409.937a.386.386,0,1,1-.386-.386A.386.386,0,0,1,410.382,409.937Zm0,0" transform="translate(-391.244 -391.406)" fill="#45484d"/><path d="M359.183,435.535a.386.386,0,1,1-.386-.386A.386.386,0,0,1,359.183,435.535Zm0,0" transform="translate(-342.315 -415.846)" fill="#45484d"/><path d="M222.647,418.468a.386.386,0,1,1-.386-.386A.386.386,0,0,1,222.647,418.468Zm0,0" transform="translate(-211.911 -399.551)" fill="#45484d"/><path d="M256.78,435.535a.386.386,0,1,1-.386-.386A.386.386,0,0,1,256.78,435.535Zm0,0" transform="translate(-244.511 -415.846)" fill="#45484d"/><path d="M86.116,418.468a.386.386,0,1,1-.386-.386A.386.386,0,0,1,86.116,418.468Zm0,0" transform="translate(-81.511 -399.551)" fill="#45484d"/><path d="M43.448,435.535a.386.386,0,1,1-.386-.386A.386.386,0,0,1,43.448,435.535Zm0,0" transform="translate(-40.745 -415.846)" fill="#45484d"/></g></svg>