<svg xmlns="http://www.w3.org/2000/svg" width="49" height="36" viewBox="0 0 49 36"><g transform="translate(0 0)"><path d="M39.669,80.377H36.584l.929-10.726c0-.019,0-.039,0-.058,0,0,0,0,0,0h0a.721.721,0,0,0-.433-.661l-.007,0-.049-.018-.018-.006-.041-.011-.029-.007-.037-.006-.035,0H22.108a.721.721,0,0,0,0,1.443H36.015L34.587,86.794v0l-.36,4.159H9.285L9.7,86.629h4.749a.721.721,0,0,0,0-1.443H9.841l.881-9.137H18.28a.721.721,0,0,0,0-1.443H10.861l.414-4.3h7.962a.721.721,0,0,0,0-1.443H10.623a.719.719,0,0,0-.7.569l0,.007c0,.018-.006.036-.008.055s0,.011,0,.017v0l-.49,5.087H.718a.721.721,0,0,0,0,1.443H9.28L8.4,85.186H5.838a.721.721,0,0,0,0,1.443H8.26L7.78,91.6v0L7.039,99.3V99.3c0,.01,0,.02,0,.03s0,.026,0,.04v0c0,.019,0,.037,0,.055s0,.012,0,.018.005.037.008.055,0,.011,0,.016.007.027.01.041,0,.019.007.029l0,.008a.722.722,0,0,0,.171.282l0,0,.024.022a.712.712,0,0,0,.167.115l.038.018.012,0,.055.02h.005c.021.006.043.012.065.016h.009c.021,0,.042.007.063.009h0q.035,0,.07,0h3.2a5.46,5.46,0,0,0,10.833,0H33.3a5.46,5.46,0,0,0,10.833,0h3.2c.024,0,.047,0,.071,0l.012,0,.055-.008.023-.005.042-.011.028-.009.035-.013.029-.013.031-.015.029-.016.029-.018.027-.018.029-.021.023-.019.029-.026.02-.019.029-.032.015-.018c.011-.013.02-.027.03-.04l.01-.014c.012-.018.023-.036.033-.054l0,0c.011-.02.021-.04.03-.062l.007-.018c.006-.015.012-.03.016-.045s.005-.02.008-.03.007-.024.009-.036,0-.022.006-.033,0-.019,0-.029c.03-.245.593-4.777.844-7.708v-.008c.072-.845.119-1.556.119-1.992A9.365,9.365,0,0,0,39.669,80.377Zm-3.21,1.443H39.4l-.375,4.328H36.084Zm-20.093,21.6a4.05,4.05,0,1,1,4.03-4.05A4.044,4.044,0,0,1,16.366,103.424Zm22.346,0a4.05,4.05,0,1,1,4.03-4.05A4.044,4.044,0,0,1,38.712,103.424Zm7.979-4.772H44.129a5.46,5.46,0,0,0-10.833,0H21.782a5.46,5.46,0,0,0-10.833,0H8.543l.6-6.253H34.885a.7.7,0,0,0,.071,0l.013,0,.056-.009.024-.006.043-.011.028-.01.036-.013.029-.013.031-.015.029-.016.029-.018.027-.019.028-.021.024-.02.027-.024.022-.022.025-.028.019-.023.023-.031.016-.024.02-.033.014-.026c.006-.011.011-.023.017-.035l.012-.028c0-.011.009-.023.013-.035s.007-.021.01-.031.006-.023.009-.034.006-.023.008-.034,0-.023.005-.034,0-.024,0-.036,0,0,0-.005l.36-4.151h3.71c2.2,0,3.191,1.145,4.241,2.358a5.889,5.889,0,0,0,3.478,2.389C47.179,94.556,46.841,97.4,46.69,98.652Zm.82-7.761A4.7,4.7,0,0,1,44.992,89a6.737,6.737,0,0,0-4.535-2.81l.371-4.285a7.935,7.935,0,0,1,6.736,7.849C47.564,90.026,47.544,90.419,47.51,90.891Z" transform="translate(0 -68.867)" fill="#fff"/></g></svg>