<svg xmlns="http://www.w3.org/2000/svg" width="14.929" height="22" viewBox="0 0 14.929 22"><g transform="translate(-0.001)"><path d="M14.057,3.974a1.172,1.172,0,0,0,.086-.438V3.143a1.18,1.18,0,0,0-1.179-1.179H6.116L5.052.19A.393.393,0,0,0,4.715,0H3.143a.393.393,0,0,0-.393.393V1.964H1.965A1.18,1.18,0,0,0,.786,3.143v.393a1.172,1.172,0,0,0,.086.438A1.177,1.177,0,0,0,0,5.107V7.464A1.18,1.18,0,0,0,1.179,8.643H1.25l.236,1.179H1.179a.393.393,0,0,0-.391.432l.786,7.857a.393.393,0,0,0,.391.353h.413l.375,3.189a.393.393,0,0,0,.39.347h9.036a.393.393,0,0,0,.391-.35l.354-3.186h.434a.393.393,0,0,0,.392-.373l.393-7.857a.393.393,0,0,0-.392-.413h-.306l.236-1.179h.071a1.18,1.18,0,0,0,1.179-1.179V5.107a1.177,1.177,0,0,0-.872-1.133ZM3.536.786h.956L5.2,1.964H3.536ZM1.572,3.143a.393.393,0,0,1,.393-.393h11a.393.393,0,0,1,.393.393v.393a.393.393,0,0,1-.393.393h-11a.393.393,0,0,1-.393-.393ZM11.828,21.214H3.493l-.324-2.75h8.964Zm1.157-3.536H2.32l-.707-7.071H13.338Zm-.341-7.857H2.287L2.051,8.643H12.878Zm1.5-2.357a.393.393,0,0,1-.393.393H1.179a.393.393,0,0,1-.393-.393V5.107a.393.393,0,0,1,.393-.393H13.751a.393.393,0,0,1,.393.393Zm0,0" fill="#45484d"/><path d="M86.218,265.141c-2.2,0-3.928,1.208-3.928,2.75s1.726,2.75,3.928,2.75,3.929-1.208,3.929-2.75S88.42,265.141,86.218,265.141Zm0,4.715c-1.7,0-3.143-.9-3.143-1.964s1.439-1.964,3.143-1.964,3.143.9,3.143,1.964S87.921,269.855,86.218,269.855Zm0,0" transform="translate(-78.753 -253.748)" fill="#45484d"/></g></svg>