<svg xmlns="http://www.w3.org/2000/svg" width="50" height="50" viewBox="0 0 50 50"><g transform="translate(-0.572)"><g transform="translate(0.573 7.99)"><g transform="translate(0)"><path d="M41.17,115.547l-1.87-5.612a5.655,5.655,0,0,0-4.354-3.775l-5.4-.982v-.418a8.13,8.13,0,0,0,2.408-2.138h1.631A2.427,2.427,0,0,0,36.01,100.2V90.5a10.5,10.5,0,0,0-21,0v5.655a3.237,3.237,0,0,0,2.576,3.164,8.094,8.094,0,0,0,3.887,5.437v.418l-5.4.982a5.654,5.654,0,0,0-4.353,3.775l-.323.97-2.752-2.752a.809.809,0,0,1,0-1.143l3.191-3.19-5.99-5.99-3.606,3.606a5.655,5.655,0,0,0,0,8l10.918,10.918a5.652,5.652,0,0,0,7.972.024l3.935-3.606-1.227-1.225ZM34.395,100.2a.809.809,0,0,1-.808.808h-.679a8.025,8.025,0,0,0,.527-1.683,3.2,3.2,0,0,0,.961-.382Zm-.808-2.648V94.766a1.6,1.6,0,0,1,0,2.782Zm-16.158,0a1.6,1.6,0,0,1,0-2.782Zm0-5.431v.923a3.2,3.2,0,0,0-.808.334V90.5a8.887,8.887,0,0,1,17.773,0v2.873a3.175,3.175,0,0,0-.808-.334v-.923h-.808a8.889,8.889,0,0,1-6.325-2.62l-.946-.946-.946.946a8.889,8.889,0,0,1-6.325,2.62Zm1.616,5.655V93.7a10.474,10.474,0,0,0,6.463-2.871A10.47,10.47,0,0,0,31.971,93.7v4.07A6.414,6.414,0,0,1,31.1,101H25.508v1.616h4.261a6.453,6.453,0,0,1-10.724-4.847Zm8.887,7.706v.038l-2.424,2.424-2.424-2.424v-.038a8.072,8.072,0,0,0,4.847,0Zm-14.684,4.966a4.041,4.041,0,0,1,3.11-2.7L22,106.722l3.5,3.5,3.5-3.5,5.646,1.026a4.039,4.039,0,0,1,3.11,2.7l1.163,3.484H22.219l-3.147-3.147-3.5,3.163a.825.825,0,0,1-1.142,0l-1.764-1.764Zm-7.406-10.33,3.7,3.7-.877.877-3.7-3.7Zm14.166,19.1a4.04,4.04,0,0,1-5.712,0L3.377,108.293a4.04,4.04,0,0,1,0-5.712l.444-.444,3.7,3.7-.029.029a2.428,2.428,0,0,0,0,3.428l5.793,5.793A2.411,2.411,0,0,0,15,115.8a2.379,2.379,0,0,0,1.684-.682l.061-.054,3.722,3.722Zm1.656-1.519-3.714-3.714,1.067-.965,3.707,3.707Z" transform="translate(-0.58 -80)" fill="#fff"/></g></g><g transform="translate(34.414)"><path d="M349.162,0h-11.31a2.427,2.427,0,0,0-2.424,2.424V8.887a2.427,2.427,0,0,0,2.424,2.424h2.158l-.835,4.872,7.8-4.872h2.192a2.427,2.427,0,0,0,2.424-2.424V2.424A2.427,2.427,0,0,0,349.162,0Zm.808,8.887a.809.809,0,0,1-.808.808h-2.655L341.376,12.9l.55-3.206h-4.074a.809.809,0,0,1-.808-.808V2.424a.809.809,0,0,1,.808-.808h11.31a.809.809,0,0,1,.808.808Z" transform="translate(-335.428)" fill="#fff"/></g><g transform="translate(37.646 3.232)"><rect width="9.695" height="1.616" fill="#fff"/></g><g transform="translate(37.646 6.463)"><rect width="6.463" height="1.616" fill="#fff"/></g><g transform="translate(45.725 6.463)"><rect width="1.616" height="1.616" fill="#fff"/></g><g transform="translate(0.572 2.424)"><g transform="translate(0)"><path d="M25.5,24A22.606,22.606,0,0,0,3.488,41.486L1.958,38.934l-1.386.831L3.412,44.5l4.732-2.84-.831-1.386L5.123,41.586a21.01,21.01,0,0,1,26.6-15.033L32.2,25.01A22.606,22.606,0,0,0,25.5,24Z" transform="translate(-0.572 -24)" fill="#fff"/></g></g><g transform="translate(41.848 14.997)"><path d="M417.368,151.856l-4.732-2.84-2.839,4.733,1.385.831,1.414-2.357a21.023,21.023,0,0,1-3.56,20.014l1.255,1.018a22.624,22.624,0,0,0,3.871-21.438l2.374,1.424Z" transform="translate(-409.036 -149.016)" fill="#fff"/></g></g></svg>