<svg xmlns="http://www.w3.org/2000/svg" width="50" height="52" viewBox="0 0 50 52"><g transform="translate(-4 -3)"><g transform="translate(4 3)"><path d="M27.252,3C42.374,3,54,13.4,54,28.837,54,44.356,42.374,55,27.252,55H10.26A5.969,5.969,0,0,1,4,48.744V9.5A6.172,6.172,0,0,1,10.26,3Z" transform="translate(-4 -3)" fill="#ff6900"/><path d="M45.057,24.366c-.082.649-.821.649-1.15.081-1.067-1.785-2.463-2.11-4.68-2.272-1.642-.081-3.613.081-5.42.081a.37.37,0,0,1-.411-.325c.328-1.542,1.642-4.383,3.038-4.626.657-.081,2.135-.243,2.956-.243,3.777,0,5.83,4.3,5.666,7.3m-21.35,14.69a26.6,26.6,0,0,0,8.54.812A22.924,22.924,0,0,0,42.84,36.459c-1.232,3.084-5.912,5.032-10.346,5.519,0,.243-.082.406-.082.649a17.891,17.891,0,0,0,8.047-2.272c-.821,3-4.927,4.22-8.7,4.464a4.8,4.8,0,0,1-.328.649,19.1,19.1,0,0,0,5.5-.73C35.2,47.9,27.813,50.094,21.572,47.172a19.291,19.291,0,0,0,2.135-8.116M44.318,17.468a7.268,7.268,0,0,0-5.173-1.948c-2.463,0-4.516.649-7.554.73-2.053.081-3.941-4.383-6.4-4.951a3.214,3.214,0,0,0-5.009-1.461c-1.4-.812-3.531-.406-3.613,1.136-1.56-.487-3.613.325-2.71,2.435-3.859.081-4.516,3.49-1.971,3.814-3.367,1.867-1.807,5.113.985,4.464.493,4.869,2.71,11.2-.9,12.742-.411.162-2.053.568-5.173-.162-.9-.243-1.889-.487-2.792-.73v2.516a25.622,25.622,0,0,0,7.144.974c4.763-.487,5.009-4.383,4.763-7.791-.246-3.327-1.4-7.223-.985-9.982l-.164-.162c-1.724,1.785-2.874,1.3-3.038.73-.246-1.136,1.807-2.6,2.956-3.084,0-.081.082-.162.082-.243-1.067.162-2.381,0-2.463-.73-.082-.893,1.807-1.785,4.27-1.542.082,0,.082-.081.164-.081l-.493-.243c-.657-.325-.821-.893-.575-1.217a1.767,1.767,0,0,1,1.478-.568,5.586,5.586,0,0,1,2.217.487c.082,0,.082-.081.164-.081-.164-.162-.411-.325-.493-.487a.61.61,0,0,1,.082-.812,1.729,1.729,0,0,1,1.971.325l.411.406a.3.3,0,0,0,.246-.081.872.872,0,0,1-.246-.568.483.483,0,0,1,.328-.649,1,1,0,0,1,.985.406,3.937,3.937,0,0,1,.493,1.055,6.842,6.842,0,0,0-5.009,2.516h0a7.66,7.66,0,0,0-.985,6.655,47.427,47.427,0,0,0,2.381,7.3h0v.081h0c1.971,5.6,5.748,19.4-12.563,26.7a6.693,6.693,0,0,0,3.038.73h1.889a23.653,23.653,0,0,0,8.129-6.655c8.376,3.652,16.012,1.785,19.3-4.22a7.918,7.918,0,0,0,3.7-5.843A6.019,6.019,0,0,0,44.4,34.105c-.082-.325-.411-.325-.9-.081-6.815,4.058-12.81,4.707-19.954,2.6a52.759,52.759,0,0,0-.985-6.574c-.164-2.841.739-4.22,5.994-2.516a16.745,16.745,0,0,1,6.241,3.246c.575.406,1.314.893,1.724.568.246-.162.328-.649.328-1.217a13.394,13.394,0,0,0-1.478-5.113,43.494,43.494,0,0,1,4.68,0A2.638,2.638,0,0,1,42.429,26.8c.575,1.623,3.777,1.217,4.024-.162.493-2.841.657-6.574-2.135-9.171M7.859,41.815a30.61,30.61,0,0,0-3.859,0v1.7c2.217-.487,3.613-.73,3.613-.73Z" transform="translate(-4 -4.099)"/><path d="M31.488,24.971c-2.874-.657-6.076-1.478-7.719-3.941,0-.082-.082-.082-.164-.082a.08.08,0,0,0-.082.082.74.74,0,0,0,.082.411l-.246.082a1.609,1.609,0,0,1-.082-1.971,2.113,2.113,0,0,1,2.71-.246l-.082.246a1.8,1.8,0,0,0-1.15.082.444.444,0,0,0-.164.657c1.4,2.628,5.5,3.2,10.346,2.792a.58.58,0,0,0,.657-.493,9.3,9.3,0,0,1,2.3-4.352,12.873,12.873,0,0,1-2.381.164c-2.463.164-3.941-.164-4.352-.493l.082-.246c.246.082.575.082.575,0,.082-.082,0-.164-.082-.246-.493-.411-2.628-2.628-2.628-2.628-.246-1.889-2.956-1.889-4.024-.082l-.328-.082a2.74,2.74,0,0,1,.411-.985,5.15,5.15,0,0,0-3.777,4.434c-.985,8.376,11.742,6.4,15.355,9.772.082.082.246.328.328.164.164-.164-1.478-2.135-5.584-3.038M27.054,14.953c.575-.164,1.478.411,1.889,1.314.493.9.328,1.807-.246,2.053s-1.478-.411-1.889-1.314c-.082-.164-.082-.246-.164-.411h.082a.544.544,0,0,0,.575.164c.246-.164.164-.493,0-.821-.164-.246-.411-.493-.657-.493l-.082-.082a1.1,1.1,0,0,1,.493-.411" transform="translate(-7.31 -4.978)" fill="#fff"/><path d="M47.079,42.8a22.745,22.745,0,0,1-10.593,3.449,29.05,29.05,0,0,1-8.54-.821,12.533,12.533,0,0,1-.246,2.463,34.184,34.184,0,0,0,7.308.9,12.247,12.247,0,0,1-3.531,6.241c4.434.164,8.458-1.56,9.689-3.859a16.783,16.783,0,0,1-5.5.739c.082-.246.246-.411.328-.657,3.777-.164,7.883-1.4,8.7-4.516a17.738,17.738,0,0,1-8.047,2.3c0-.246.082-.411.082-.657,4.434-.575,9.115-2.463,10.346-5.584" transform="translate(-8.552 -10.672)" fill="#fff"/></g></g></svg>