<svg xmlns="http://www.w3.org/2000/svg" width="88" height="50" viewBox="0 0 88 50"><g transform="translate(-13.96 -283.286)"><g transform="translate(13.96 283.286)"><path d="M50.99,331.892l-.069-6.589a6.5,6.5,0,0,1-2.418.967l-20.217,5.657c1.667.346,2.323,1.261,2.366,3.368l.173,17.885c0,3.463-.389,5.078-1.71,5.458-1.105.32-1.839-.147-3.273-1.408L15.418,346.608l11.65-14.336-12.833,3.593c2.064.51,2.7,1.934,1.2,3.8L7.7,350.1l-.035-8.628a5.563,5.563,0,0,1,2.34-4.43l-13.835,3.878c1.649.311,2.34,1.244,2.409,3.385l.155,17.911c0,1.839.052,3.99-2.375,5.829l13.688-3.826c-1.943-.544-2.271-1.883-2.306-3.714l-.026-7.747,8.6,9.707,6.348-1.788,19.483-5.484c-1.848-.872-2.306-2.323-2.271-4.577l-.043-6.512,4.439-1.27c2.073-.561,2.979-.337,4.128.354l-.061-6.417a6.722,6.722,0,0,1-2.418.985l-6.1,1.719-.06-6.14,7.116-1.995c2.047-.51,3.014-.25,4.111.553" transform="translate(3.832 -318.043)" fill="#df0038"/><path d="M440.144,298.963c-5.648,1.58-9.932-1.537-11.149-5.916-1.364-4.845,1.209-10.812,7.747-12.678a17.007,17.007,0,0,1,7.531-.371V274.54a32.543,32.543,0,0,0-7.332,1.3c-13.084,3.679-19.405,13.611-17.289,21.141,1.572,5.657,7.7,10.07,18.3,7.125a49.508,49.508,0,0,0,8.558-3.169v-5.1a25.011,25.011,0,0,1-6.365,3.118" transform="translate(-363.907 -273.383)" fill="#df0038"/><path d="M14.979,468.094l-.13-18.714c.017-2.28-.406-2.91-1.2-3.532,1.218-.035,2.176.622,2.176,3.282l.13,18.784c.017,2.228-.57,3.169-2.142,3.584a4.424,4.424,0,0,0,1.166-3.4" transform="translate(-11.404 -423.103)" fill="#fff"/><path d="M265.028,398.719,264.907,380c.026-2.228-.415-2.876-1.209-3.532,1.235-.026,2.176.656,2.185,3.3L266,398.555c.009,2.254-.406,3.135-1.952,3.558.838-.734.959-1.667.976-3.394" transform="translate(-228.929 -362.455)" fill="#fff"/><path d="M336.12,356.7l6.537-1.788c1.891-.553,3.619-.57,4,.941-.889-.423-1.762-.613-3.973.043l-6.572,1.831.009-1.028" transform="translate(-291.876 -343.229)" fill="#fff"/><path d="M336.2,446.342l-.017-1.01,3.921-1.079c1.883-.535,3.584-.535,4,.967-.881-.423-1.779-.622-3.981.035l-3.921,1.088" transform="translate(-291.953 -421.212)" fill="#fff"/><path d="M428.63,325.8c-2.306-8.334,5.717-15.528,11.425-17.782-4.7,2.738-12.6,9.258-10.337,17.462,2.185,7.893,11.279,7.807,17.246,6.486-6.373,2.349-16.011,2.219-18.334-6.166" transform="translate(-371.728 -302.565)" fill="#fff"/><path d="M99.433,430.966a3.229,3.229,0,0,1-2.608-1.01l.086.147L89.4,421.656l8.075-10.769c1.65-2.09,1.753-4.612-.587-4.767,1.105,1.045,1.071,2.582-.337,4.4l-8.4,11.2,8.809,9.949,1.105-.32,1.373-.38" transform="translate(-76.332 -388.479)" fill="#fff"/><path d="M631.94,266.67a2.47,2.47,0,0,1,.743,1.814,2.523,2.523,0,0,1-.743,1.831,2.5,2.5,0,0,1-1.8.751,2.577,2.577,0,0,1-1.814-4.4,2.5,2.5,0,0,1,1.814-.725A2.47,2.47,0,0,1,631.94,266.67Zm.3-.276a2.968,2.968,0,1,0-4.2,4.2,2.854,2.854,0,0,0,2.1.872,2.911,2.911,0,0,0,2.1-.872,2.876,2.876,0,0,0,.881-2.107A2.837,2.837,0,0,0,632.242,266.394Zm-1.658,1.926a1.14,1.14,0,0,1-.553.1h-.51V267.24h.492a1.326,1.326,0,0,1,.691.129.484.484,0,0,1,.207.449A.454.454,0,0,1,630.584,268.319Zm-1.632,1.814h.57v-1.3h.44a1.4,1.4,0,0,1,.648.112c.207.1.3.363.3.751v.233l.017.1v.069a.087.087,0,0,0,.017.043h.544l-.026-.052a.4.4,0,0,1-.026-.19,1.98,1.98,0,0,1-.017-.216V269.4a.805.805,0,0,0-.173-.475.785.785,0,0,0-.553-.328,1.745,1.745,0,0,0,.466-.147.914.914,0,0,0-.181-1.485,2.583,2.583,0,0,0-.89-.112h-1.14v3.282" transform="translate(-545.123 -265.53)" fill="#df0038"/></g></g></svg>