<svg xmlns="http://www.w3.org/2000/svg" width="60" height="58" viewBox="0 0 60 58"><g transform="translate(1093.174 1456.04)"><g transform="translate(-1093.174 -1456.04)"><g transform="translate(0 38.62)"><path d="M0,0,2.167,19.38H57.835L60,0Z" fill="#ef3e42"/></g><g transform="translate(3.661 0)"><path d="M-2218.128-2129.39s-2.819-40.159-8.889-40.159c-7.153,0-7.479,37.79-7.479,37.79l-6.667.055s-.325-37.79-7.478-37.79c-6.071,0-8.889,40.159-8.889,40.159l-6.53-.028s4.387-43.727,15.8-43.781c7.507-.036,10.405,18.832,10.405,18.832s4.365-18.869,10-18.869c13.549,0,16.258,43.818,16.258,43.818Z" transform="translate(2264.061 2173.181)" fill="#febd11"/></g><g transform="translate(26.581 40.43)"><path d="M-160.994,0l-3.311.835,6.622-.055Z" transform="translate(164.305)" fill="#ffd420"/></g><g transform="translate(49.665 42.786)"><path d="M-146.546,0l-3.014.806h6.46Z" transform="translate(149.56)" fill="#ffd420"/></g><g transform="translate(3.662 42.786)"><path d="M-146.546,0l-3.014.806,6.486.028Z" transform="translate(149.56)" fill="#ffd420"/></g><g transform="translate(29.9 0)"><path d="M-509.225-91.6c-8.829,0-10.444,38.758-10.444,38.758l-.028-21.773s4.336-18.869,9.935-18.869Z" transform="translate(519.698 93.488)" fill="#ffd420"/></g><g transform="translate(19.087 1.991)"><path d="M0,0C8.613,0,10.765,38.651,10.765,38.651l-3.309.835S7.133,1.7.026,1.7Z" fill="#ffd420"/></g><g transform="translate(3.662 0.036)"><path d="M-146.546-2089.682s3.553-41.02,12.273-41.02l.4-1.955c-11.333.055-15.689,43.781-15.689,43.781Z" transform="translate(149.56 2132.657)" fill="#ffd420"/></g><g transform="translate(40.513 1.884)"><path d="M-591.59-1999.847s-3.23-41.127-12.166-41.127l.3,1.75c6.027,0,8.827,40.157,8.827,40.157Z" transform="translate(603.756 2040.975)" fill="#ffd420"/></g><g transform="translate(3.417 45.658)"><path d="M-2580.719-57.1l-.212-.95v.95h-.242v-1.174h.354l.222.9.22-.9h.356V-57.1h-.244v-.95l-.212.95Zm-.583-1.174v.2h-.346v.972h-.242v-.972h-.358v-.2Zm-36.5,2.576h.755c1.717,0,1.868,1.152,1.868,1.567a1.5,1.5,0,0,1-1.695,1.641h-.928Zm-2.07,4.493h3.109c2.436,0,3.569-1.132,3.569-2.913,0-1.463-.822-2.894-3.147-2.894h-3.531Zm33.1-5.846h1.508l-.5,1.694h-1.007ZM-2609-53.766c0,.578-.114,1.358-.969,1.358s-.969-.78-.969-1.358.114-1.348.969-1.348.969.77.969,1.348m1.845,0a2.554,2.554,0,0,0-2.82-2.654,2.554,2.554,0,0,0-2.822,2.654,2.562,2.562,0,0,0,2.822,2.666,2.561,2.561,0,0,0,2.82-2.666m.554,2.583h1.795v-2.559c0-.776.49-.936.81-.936.545,0,.783.394.783.956v2.541l1.815,0V-54.51a1.679,1.679,0,0,0-1.8-1.645,1.977,1.977,0,0,0-1.685.738v-.616h-1.719Zm10.763-3.119c-.039-.58,0-1.961-2.336-1.961-1.158,0-2.427.3-2.427,1.657h1.741a.6.6,0,0,1,.631-.572.57.57,0,0,1,.6.519c.006.162-.272.313-.531.309-1.056-.018-2.686.129-2.686,1.694a1.511,1.511,0,0,0,1.675,1.548,2.061,2.061,0,0,0,1.475-.554l.092.036a.927.927,0,0,0,.018.4h1.778a3.074,3.074,0,0,1-.035-1.085Zm-1.78,1.243a.956.956,0,0,1-.854.7c-.34,0-.517-.2-.517-.42,0-.327.075-.552.446-.627a5.7,5.7,0,0,1,.926-.1Zm2.576-4h1.862v5.868h-1.862Zm6.016,3.426c0,.578-.163,1.2-.887,1.2s-.885-.625-.885-1.2.163-1.193.885-1.193.887.625.887,1.193m1.742-3.426h-1.792v1.393h-.021a1.668,1.668,0,0,0-1.408-.564c-1.636,0-2.149,1.474-2.149,2.614,0,1.417.631,2.539,2.126,2.535a1.506,1.506,0,0,0,1.428-.655h.019v.534h1.8Zm6.118,2.393c-.037-1.528-1.29-1.651-2.279-1.676-.777-.018-2.175.279-2.175,1.562,0,.871.539,1.342,1.872,1.6.813.156.885.323.9.542a.508.508,0,0,1-.521.477.682.682,0,0,1-.468-.146.887.887,0,0,1-.218-.54h-1.758c.027,1.312.833,1.791,2.377,1.793,1.113,0,2.421-.358,2.421-1.771,0-.736-.5-1.14-1.2-1.324a12.48,12.48,0,0,1-1.463-.386.451.451,0,0,1-.256-.331c0-.334.293-.386.529-.392a.507.507,0,0,1,.388.089.785.785,0,0,1,.2.505h1.654Zm-52.981,3.431h1.88s.435-2.757.452-2.989l1.035,2.989h1.614l1.056-2.989.332,2.989h2.024l-1.017-5.838h-2.291s-.814,2.593-.854,2.848h-.057l-.855-2.848h-2.317Zm13.578-3.131a2.216,2.216,0,0,0-2.482-1.963,2.522,2.522,0,0,0-2.643,2.551,2.407,2.407,0,0,0,2.643,2.666c1.316,0,2.362-.406,2.539-2.1h-1.778c-.037.384-.187.811-.724.811-.822,0-.818-.784-.818-1.372s.02-1.31.734-1.31a.965.965,0,0,1,.564.182.873.873,0,0,1,.2.54Z" transform="translate(2634.149 58.279)" fill="#fff"/></g></g></g></svg>