<svg xmlns="http://www.w3.org/2000/svg" width="33.421" height="19.911" viewBox="0 0 33.421 19.911"><path d="M16.655,118.129a9.933,9.933,0,0,0,0-14.748,9.942,9.942,0,1,0-6.662,17.276,9.7,9.7,0,0,0,6.662-2.528Z" transform="translate(0 -100.8)" fill="#07a9e2"/><path d="M0,110.755a9.955,9.955,0,0,0,9.993,9.9,9.646,9.646,0,0,0,6.662-2.581h0a9.874,9.874,0,0,0,0-14.7A9.994,9.994,0,0,0,9.993,100.8" transform="translate(0 -100.8)" fill="#009ddd"/><path d="M78.666,103.381A9.994,9.994,0,0,0,72,100.8h-.476a12.212,12.212,0,0,0-.053,19.857h.476a9.646,9.646,0,0,0,6.662-2.581,9.928,9.928,0,0,0,.053-14.7Z" transform="translate(-62.012 -100.8)" fill="#0284cc"/><path d="M215.381,100.8a9.874,9.874,0,0,0-6.715,2.581,9.477,9.477,0,0,0-1,1.053h2.009a7.528,7.528,0,0,1,.74,1.053h-3.542a10.425,10.425,0,0,0-.582,1.053h4.706a8.761,8.761,0,0,1,.423,1.053h-5.5c-.106.369-.211.685-.317,1.053h6.133a9.193,9.193,0,0,1,.211,2.107,9.021,9.021,0,0,1-.529,3.16h-5.5a8.769,8.769,0,0,0,.423,1.053h4.706a6.741,6.741,0,0,1-.582,1.053h-3.542a7.526,7.526,0,0,0,.74,1.053h2.009a9.481,9.481,0,0,1-1,1.053,10.13,10.13,0,0,0,6.715,2.581,9.955,9.955,0,0,0,0-19.91Z" transform="translate(-191.901 -100.8)" fill="#ff2957"/><path d="M215.381,100.8h0a9.874,9.874,0,0,0-6.715,2.581,9.477,9.477,0,0,0-1,1.053h2.009a7.528,7.528,0,0,1,.74,1.053h-3.542a10.425,10.425,0,0,0-.582,1.053h4.706a8.761,8.761,0,0,1,.423,1.053h-5.5c-.106.369-.211.685-.317,1.053h6.133a9.193,9.193,0,0,1,.211,2.107,9.021,9.021,0,0,1-.529,3.16h-5.5a8.769,8.769,0,0,0,.423,1.053h4.706a6.741,6.741,0,0,1-.582,1.053h-3.542a7.526,7.526,0,0,0,.74,1.053h2.009a9.481,9.481,0,0,1-1,1.053,10.13,10.13,0,0,0,6.715,2.581,9.91,9.91,0,0,0,9.94-9.9" transform="translate(-191.901 -100.8)" fill="#ed1c2e"/><path d="M252,154.729A9.911,9.911,0,0,0,252,140v14.729Z" transform="translate(-235.283 -137.409)" fill="#0466b5"/><path d="M452,280.317a.317.317,0,1,1,.317.317.341.341,0,0,1-.317-.317Zm.317.264c.159,0,.211-.106.211-.264a.194.194,0,0,0-.211-.211.242.242,0,0,0-.264.211.34.34,0,0,0,.264.264Zm0-.159h-.053v-.264h.159l.053.053c0,.053,0,.053-.053.053l.053.106h-.053l-.053-.106h-.053v.159Zm0-.159h.053v-.053h-.053v.053Z" transform="translate(-422.016 -268.203)" fill="#fff"/><path d="M208.667,104.768a9.477,9.477,0,0,0-1,1.053h2.009a7.527,7.527,0,0,1,.74,1.053h-3.542a10.426,10.426,0,0,0-.582,1.053h4.706a8.761,8.761,0,0,1,.423,1.053h-5.5c-.106.369-.211.685-.317,1.053h6.133a9.193,9.193,0,0,1,.211,2.107,9.021,9.021,0,0,1-.529,3.16h-5.5a8.77,8.77,0,0,0,.423,1.053h4.706a6.741,6.741,0,0,1-.582,1.053h-3.542a7.525,7.525,0,0,0,.74,1.053h2.009a9.481,9.481,0,0,1-1,1.053,10.131,10.131,0,0,0,6.715,2.581h.476a12.2,12.2,0,0,0,0-19.8h-.476A9.545,9.545,0,0,0,208.667,104.768Z" transform="translate(-191.901 -102.187)" fill="#d1094b"/><path d="M55.793,217.876H54.524l.74-3.86-1.692,3.86h-1.11l-.211-3.86-.74,3.86H50.4l.952-5.076h1.956l.106,3.172,1.375-3.172H56.8Z" transform="translate(-47.069 -205.435)" fill="#fff"/><g transform="translate(7.512 7.417)"><path d="M112.853,216.4l.74-1.639-.582,3.067a4.949,4.949,0,0,0,.212.846h.846l.952-5.076H113.17a10.214,10.214,0,0,0-.37,2.591C112.853,216.244,112.853,216.3,112.853,216.4Z" transform="translate(-112.8 -213.6)" fill="#dce5e5"/><path d="M315.451,218.57a2.934,2.934,0,0,1-.9.159c-.634,0-.952-.317-.952-.9a1.032,1.032,0,0,1,.053-.37l.053-.423.053-.317.582-3.119h1.216l-.159.952h.634l-.159.952h-.634l-.317,1.692a.532.532,0,0,1-.053.159c0,.211.159.317.423.317.159,0,.264,0,.317-.053l-.159.952Z" transform="translate(-300.329 -213.6)" fill="#dce5e5"/><path d="M351.225,226.506c-.106-.053-.106-.053-.159-.053s-.106,0-.106-.053H350.8c-.423,0-.687.159-1.057.687l.106-.634h-1.11l-.74,4.124h1.269c.423-2.538.634-2.961,1.216-2.961h.159l.159.053.423-1.163Z" transform="translate(-332.456 -225.554)" fill="#dce5e5"/><path d="M260.476,227.775q0,.793.952,1.11c.529.211.582.264.582.476,0,.264-.212.37-.74.37a4.027,4.027,0,0,1-1.11-.159l-.159.952h.053l.211.053h.317a3.793,3.793,0,0,0,.687.053c1.322,0,1.956-.423,1.956-1.375,0-.582-.264-.9-.9-1.163-.529-.211-.582-.264-.582-.423q0-.317.634-.317a5.764,5.764,0,0,1,.9.053l.159-.952a7.808,7.808,0,0,0-1.11-.053c-1.375,0-1.85.634-1.85,1.375Z" transform="translate(-250.272 -225.554)" fill="#dce5e5"/><path d="M144.237,229.83h-1v-.423a1.759,1.759,0,0,1-1.322.476,1.054,1.054,0,0,1-1.11-1.11c0-1,.793-1.586,2.168-1.586h.529a.707.707,0,0,0,.053-.264c0-.264-.212-.37-.793-.37a5.325,5.325,0,0,0-1,.106l-.159.053h-.106l.159-.9a5.519,5.519,0,0,1,1.48-.212c1.057,0,1.639.423,1.639,1.216a3.177,3.177,0,0,1-.106.846l-.264,1.48-.053.264-.053.211v.159l-.053.053Zm-.9-1.851h-.264c-.687,0-1.057.212-1.057.634a.389.389,0,0,0,.423.423.938.938,0,0,0,.9-1.057Z" transform="translate(-138.949 -224.807)" fill="#dce5e5"/><path d="M206.584,229.724a5.216,5.216,0,0,1-1.269.159c-1.375,0-2.115-.634-2.115-1.851a2.217,2.217,0,0,1,2.168-2.432,1.463,1.463,0,0,1,1.639,1.48,3.9,3.9,0,0,1-.159,1h-2.485v.159c0,.476.37.74,1.057.74a2.612,2.612,0,0,0,1.269-.264l-.106,1Zm-.634-2.432v-.211a.516.516,0,0,0-.582-.529.837.837,0,0,0-.793.74Z" transform="translate(-197.225 -224.807)" fill="#dce5e5"/></g><g transform="translate(25.807 8.208)"><path d="M393.188,227.979a2.2,2.2,0,0,1-2.432,1.956,1.764,1.764,0,0,1-1.956-1.9,2.3,2.3,0,0,1,2.432-2.432,1.805,1.805,0,0,1,1.956,1.851v.529Zm-1.322-.529c0-.423-.159-.793-.687-.793-.634,0-1,.74-1,1.428,0,.529.264.9.687.9a1.226,1.226,0,0,0,.952-1,1.986,1.986,0,0,0,.053-.529Z" transform="translate(-388.8 -225.6)" fill="#fff"/><path d="M389.04,251.669a8.643,8.643,0,0,0,.106-1.163V250.4a4.111,4.111,0,0,0-.106.846A.579.579,0,0,0,389.04,251.669Z" transform="translate(-388.987 -248.761)" fill="#fff"/></g></svg>