<svg xmlns="http://www.w3.org/2000/svg" width="33.571" height="20" viewBox="0 0 33.571 20"><path d="M221.6,110.8a10,10,0,1,1-20,0h0a10,10,0,1,1,20,0Z" transform="translate(-188.029 -100.8)" fill="#ffb600"/><path d="M211.6,100.8a10.026,10.026,0,0,1,10,10h0a10,10,0,1,1-20,0" transform="translate(-188.029 -100.8)" fill="#f7981d"/><path d="M352.8,100.8a10.026,10.026,0,0,1,10,10h0a9.992,9.992,0,0,1-10,10" transform="translate(-329.229 -100.8)" fill="#ff8500"/><path d="M9.894,100.8a10,10,0,0,0,.106,20,10.116,10.116,0,0,0,6.72-2.593h0a9.508,9.508,0,0,0,1.005-1.058H15.661a12.2,12.2,0,0,1-.741-1.005h3.545a6.777,6.777,0,0,0,.582-1.058H14.339a6.306,6.306,0,0,1-.423-1.058h5.5a10.506,10.506,0,0,0,.529-3.175,13.657,13.657,0,0,0-.212-2.116H13.6a7.735,7.735,0,0,1,.265-1.058h5.5a6.306,6.306,0,0,0-.423-1.058H14.286a10.493,10.493,0,0,1,.582-1.058h3.545a5.032,5.032,0,0,0-.794-1.058H15.661a9.019,9.019,0,0,1,1.005-1.005,9.763,9.763,0,0,0-6.72-2.593C9.947,100.8,9.947,100.8,9.894,100.8Z" transform="translate(0 -100.8)" fill="#ff5050"/><path d="M0,112.294a9.992,9.992,0,0,0,10,10,10.116,10.116,0,0,0,6.72-2.593h0a9.506,9.506,0,0,0,1.005-1.058H15.661a12.205,12.205,0,0,1-.741-1.005h3.545a6.779,6.779,0,0,0,.582-1.058H14.339a6.306,6.306,0,0,1-.423-1.058h5.5a10.506,10.506,0,0,0,.529-3.175,13.657,13.657,0,0,0-.212-2.116H13.6a7.735,7.735,0,0,1,.265-1.058h5.5a6.306,6.306,0,0,0-.423-1.058H14.286a10.493,10.493,0,0,1,.582-1.058h3.545A5.031,5.031,0,0,0,17.619,106H15.661a9.018,9.018,0,0,1,1.005-1.005,9.763,9.763,0,0,0-6.72-2.593H9.894" transform="translate(0 -102.294)" fill="#e52836"/><path d="M149.706,122.294a10.116,10.116,0,0,0,6.72-2.593h0a9.506,9.506,0,0,0,1.005-1.058h-2.063a12.206,12.206,0,0,1-.741-1.005h3.545a6.778,6.778,0,0,0,.582-1.058h-4.709a6.305,6.305,0,0,1-.423-1.058h5.5a10.506,10.506,0,0,0,.529-3.175,13.659,13.659,0,0,0-.212-2.116H153.3a7.736,7.736,0,0,1,.265-1.058h5.5a6.309,6.309,0,0,0-.423-1.058h-4.656a10.5,10.5,0,0,1,.582-1.058h3.545a5.032,5.032,0,0,0-.794-1.058h-1.958a9.018,9.018,0,0,1,1.005-1.005,9.763,9.763,0,0,0-6.72-2.593H149.6" transform="translate(-139.605 -102.294)" fill="#cb2026"/><g transform="translate(0.952 7.407)"><path d="M183.134,224.656l.159-.9a2.292,2.292,0,0,1-.265.053c-.37,0-.423-.212-.37-.317l.317-1.852h.582l.159-1.005h-.529l.106-.635h-1.058s-.635,3.492-.635,3.915a.794.794,0,0,0,.847.9A1.624,1.624,0,0,0,183.134,224.656Z" transform="translate(-170.452 -219.524)" fill="#fff"/><path d="M210.4,231.086a1.683,1.683,0,0,0,1.852,1.852,2.747,2.747,0,0,0,1.111-.159l.212-1.005a3.172,3.172,0,0,1-1.111.265c-1.164,0-.952-.847-.952-.847h2.169a6.861,6.861,0,0,0,.159-.952,1.433,1.433,0,0,0-1.534-1.534C211.194,228.6,210.4,229.764,210.4,231.086Zm1.852-1.534c.582,0,.476.688.476.741h-1.164C211.564,230.24,211.67,229.552,212.252,229.552Z" transform="translate(-197.327 -227.647)" fill="#fff"/><path d="M298.91,217.932l.212-1.164a2.6,2.6,0,0,1-.9.265c-.741,0-1.058-.582-1.058-1.217,0-1.27.635-1.958,1.376-1.958a1.767,1.767,0,0,1,.952.317l.159-1.111a3.72,3.72,0,0,0-1.217-.265c-1.217,0-2.434,1.058-2.434,3.069,0,1.323.635,2.222,1.9,2.222A4.749,4.749,0,0,0,298.91,217.932Z" transform="translate(-277.216 -212.8)" fill="#fff"/><path d="M88.411,227.2a3.747,3.747,0,0,0-1.27.212l-.159.9a3.128,3.128,0,0,1,1.164-.212c.37,0,.688.053.688.37,0,.212-.053.265-.053.265H88.3c-.9,0-1.9.37-1.9,1.587,0,.952.635,1.164,1.005,1.164a1.59,1.59,0,0,0,1.111-.476l-.053.423h.952l.423-2.91A1.254,1.254,0,0,0,88.411,227.2Zm.212,2.381c0,.159-.106,1.005-.741,1.005a.413.413,0,0,1-.423-.423c0-.265.159-.635.952-.635A.834.834,0,0,0,88.622,229.581Z" transform="translate(-81.598 -226.248)" fill="#fff"/><path d="M136.417,230.739A1.356,1.356,0,0,0,138,229.363c0-1.323-1.27-1.058-1.27-1.587,0-.265.212-.37.582-.37.159,0,.741.053.741.053l.159-.952a4.018,4.018,0,0,0-1.005-.106c-.794,0-1.587.317-1.587,1.376,0,1.217,1.323,1.111,1.323,1.587,0,.317-.37.37-.635.37a3.46,3.46,0,0,1-.952-.159l-.159.952C135.253,230.633,135.517,230.739,136.417,230.739Z" transform="translate(-127.144 -225.501)" fill="#fff"/><path d="M430.216,214.4,430,215.829A1.467,1.467,0,0,0,429,215.3c-.952,0-1.8,1.164-1.8,2.54,0,.847.423,1.746,1.323,1.746a1.412,1.412,0,0,0,1.005-.423l-.053.37h1.058l.794-5.079Zm-.476,2.8c0,.582-.265,1.323-.847,1.323-.37,0-.582-.317-.582-.847,0-.847.37-1.376.847-1.376C429.528,216.3,429.74,216.569,429.74,217.2Z" transform="translate(-399.66 -214.294)" fill="#fff"/><path d="M15.405,219.479l.635-3.81.106,3.81h.741l1.376-3.81-.582,3.81h1.111l.847-5.079H17.892l-1.058,3.122-.053-3.122H15.247l-.847,5.079Z" transform="translate(-14.4 -214.294)" fill="#fff"/><path d="M261.164,232.927c.317-1.746.37-3.175,1.111-2.91a4.152,4.152,0,0,1,.37-1.217h-.212c-.476,0-.847.635-.847.635l.106-.582h-1.005L260,232.98h1.164Z" transform="translate(-243.622 -227.742)" fill="#fff"/><path d="M348.411,227.2a3.747,3.747,0,0,0-1.27.212l-.159.9a3.128,3.128,0,0,1,1.164-.212c.37,0,.688.053.688.37,0,.212-.053.265-.053.265H348.3c-.9,0-1.9.37-1.9,1.587,0,.952.635,1.164,1.005,1.164a1.59,1.59,0,0,0,1.111-.476l-.053.423h.952l.423-2.91A1.235,1.235,0,0,0,348.411,227.2Zm.265,2.381c0,.159-.106,1.005-.741,1.005a.413.413,0,0,1-.423-.423c0-.265.159-.635.952-.635C348.622,229.581,348.622,229.581,348.675,229.581Z" transform="translate(-324.256 -226.248)" fill="#fff"/><path d="M395.564,232.927c.317-1.746.37-3.175,1.111-2.91a4.154,4.154,0,0,1,.37-1.217h-.212c-.476,0-.847.635-.847.635l.106-.582h-1.005l-.688,4.127h1.164Z" transform="translate(-369.03 -227.742)" fill="#fff"/></g><g transform="translate(0.952 7.407)"><path d="M180,223.915a.794.794,0,0,0,.847.9,2.014,2.014,0,0,0,.794-.159l.159-.9a2.291,2.291,0,0,1-.265.053c-.37,0-.423-.212-.37-.317l.317-1.852h.582l.159-1.005h-.529L181.8,220" transform="translate(-168.958 -219.524)" fill="#dce5e5"/><path d="M218.4,231.086c0,1.481.476,1.852,1.323,1.852a2.746,2.746,0,0,0,1.111-.159l.212-1.005a3.172,3.172,0,0,1-1.111.265c-1.164,0-.952-.847-.952-.847h2.169a6.86,6.86,0,0,0,.159-.952,1.434,1.434,0,0,0-1.534-1.534C218.665,228.6,218.4,229.764,218.4,231.086Zm1.323-1.534c.582,0,.688.688.688.741h-1.376C219.035,230.24,219.141,229.552,219.723,229.552Z" transform="translate(-204.795 -227.647)" fill="#dce5e5"/><path d="M306.381,217.932l.212-1.164a2.6,2.6,0,0,1-.9.265c-.741,0-1.058-.582-1.058-1.217,0-1.27.635-1.958,1.376-1.958a1.767,1.767,0,0,1,.952.317l.159-1.111a3.72,3.72,0,0,0-1.217-.265c-1.217,0-1.9,1.058-1.9,3.069,0,1.323.106,2.222,1.376,2.222A4.749,4.749,0,0,0,306.381,217.932Z" transform="translate(-284.686 -212.8)" fill="#dce5e5"/><path d="M86.982,229.858a3.128,3.128,0,0,1,1.164-.212c.37,0,.688.053.688.37,0,.212-.053.265-.053.265H88.3c-.9,0-1.9.37-1.9,1.587,0,.952.635,1.164,1.005,1.164a1.59,1.59,0,0,0,1.111-.476l-.053.423h.952l.423-2.91c0-1.217-1.058-1.27-1.481-1.27m.794,2.275a1.732,1.732,0,0,1-1.27,1.005.413.413,0,0,1-.423-.423c0-.265.159-.635.952-.635A4.322,4.322,0,0,0,89.151,231.075Z" transform="translate(-81.598 -227.742)" fill="#dce5e5"/><path d="M136,230.633a4.478,4.478,0,0,0,1.217.106,1.356,1.356,0,0,0,1.587-1.376c0-1.323-1.27-1.058-1.27-1.587,0-.265.212-.37.582-.37.159,0,.741.053.741.053l.159-.952a4.018,4.018,0,0,0-1.005-.106c-.794,0-1.058.317-1.058,1.376,0,1.217.794,1.111.794,1.587,0,.317-.37.37-.635.37" transform="translate(-127.89 -225.501)" fill="#dce5e5"/><path d="M437.421,216.576a1.467,1.467,0,0,0-1.005-.529c-.952,0-1.27,1.164-1.27,2.54,0,.847-.106,1.746.794,1.746a1.412,1.412,0,0,0,1.005-.423l-.053.37h1.058l.794-5.079m-1.376,2.751c0,.582-.476,1.323-1.058,1.323-.37,0-.582-.317-.582-.847,0-.847.37-1.376.847-1.376A.809.809,0,0,1,437.368,217.951Z" transform="translate(-407.077 -215.041)" fill="#dce5e5"/><path d="M15.405,219.479l.635-3.81.106,3.81h.741l1.376-3.81-.582,3.81h1.111l.847-5.079H18.315l-1.481,3.122-.053-3.122H16.2l-1.8,5.079Z" transform="translate(-14.4 -214.294)" fill="#dce5e5"/><path d="M260.8,232.927h1.111c.318-1.746.37-3.175,1.111-2.91a4.153,4.153,0,0,1,.37-1.217h-.212c-.476,0-.847.635-.847.635l.106-.582" transform="translate(-244.369 -227.742)" fill="#dce5e5"/><path d="M346.982,229.858a3.127,3.127,0,0,1,1.164-.212c.37,0,.688.053.688.37,0,.212-.053.265-.053.265H348.3c-.9,0-1.9.37-1.9,1.587,0,.952.635,1.164,1.005,1.164a1.59,1.59,0,0,0,1.111-.476l-.053.423h.952l.423-2.91c0-1.217-1.058-1.27-1.482-1.27m.794,2.275a1.732,1.732,0,0,1-1.27,1.005.413.413,0,0,1-.423-.423c0-.265.159-.635.952-.635A4.654,4.654,0,0,0,349.151,231.075Z" transform="translate(-324.256 -227.742)" fill="#dce5e5"/><path d="M395.2,232.927h1.111c.317-1.746.37-3.175,1.111-2.91a4.152,4.152,0,0,1,.37-1.217h-.212c-.476,0-.847.635-.847.635l.106-.582" transform="translate(-369.777 -227.742)" fill="#dce5e5"/></g></svg>