<svg xmlns="http://www.w3.org/2000/svg" width="50" height="50" viewBox="0 0 50 50"><g transform="translate(0 -0.346)"><path d="M115.653,21.9l0,.032A5.412,5.412,0,0,0,118.74,27.1l.021.01a3.639,3.639,0,0,1,1.648,1.585l.008.015a5.654,5.654,0,0,0,5.314,2.966l.034,0a3.87,3.87,0,0,1,2.288.595,5.8,5.8,0,0,0,6.152,0,3.87,3.87,0,0,1,2.288-.595l.034,0A5.658,5.658,0,0,0,141.84,28.7l.005-.01A3.645,3.645,0,0,1,143.5,27.1l.016-.008a5.412,5.412,0,0,0,3.089-5.163l0-.03a3.463,3.463,0,0,1,.6-2.146,5.324,5.324,0,0,0,0-6.021,3.462,3.462,0,0,1-.6-2.145l0-.032a5.411,5.411,0,0,0-3.09-5.163l-.018-.009a3.635,3.635,0,0,1-1.645-1.579l-.01-.021a5.659,5.659,0,0,0-5.314-2.966l-.034,0a3.867,3.867,0,0,1-2.287-.595h0a5.8,5.8,0,0,0-6.152,0,3.873,3.873,0,0,1-2.288.594l-.034,0a5.655,5.655,0,0,0-5.313,2.965l-.008.014a3.641,3.641,0,0,1-1.65,1.587l-.019.009a5.411,5.411,0,0,0-3.089,5.163l0,.03a3.46,3.46,0,0,1-.6,2.145,5.324,5.324,0,0,0,0,6.021A3.46,3.46,0,0,1,115.653,21.9Zm.934-7.107a5.337,5.337,0,0,0,.93-3.311l0-.032a3.549,3.549,0,0,1,2.039-3.375l.016-.008a5.5,5.5,0,0,0,2.49-2.4l.009-.017a3.785,3.785,0,0,1,3.562-1.969h.033a5.719,5.719,0,0,0,3.383-.879,3.923,3.923,0,0,1,4.162,0,5.732,5.732,0,0,0,3.383.88l.033,0a3.78,3.78,0,0,1,3.56,1.965l.012.023a5.5,5.5,0,0,0,2.487,2.393l.015.008a3.55,3.55,0,0,1,2.041,3.377l0,.033a5.336,5.336,0,0,0,.93,3.311,3.448,3.448,0,0,1,0,3.9,5.342,5.342,0,0,0-.929,3.311l0,.031a3.551,3.551,0,0,1-2.041,3.378l-.014.006a5.5,5.5,0,0,0-2.492,2.4l-.007.014a3.784,3.784,0,0,1-3.562,1.969l-.032,0a5.73,5.73,0,0,0-3.384.88,3.924,3.924,0,0,1-4.161,0,5.721,5.721,0,0,0-3.067-.888q-.158,0-.317.009h-.033a3.781,3.781,0,0,1-3.563-1.971l-.01-.018a5.49,5.49,0,0,0-2.486-2.393l-.017-.009a3.549,3.549,0,0,1-2.041-3.377l0-.033a5.341,5.341,0,0,0-.93-3.311,3.448,3.448,0,0,1,0-3.9Zm0,0" transform="translate(-100.941)" fill="#fff"/><path d="M204.943,76.375a.933.933,0,0,0,1.286-.3l11.058-17.716a.934.934,0,1,0-1.584-.989L204.646,75.089A.933.933,0,0,0,204.943,76.375Zm0,0" transform="translate(-180.73 -49.979)" fill="#fff"/><path d="M185.556,70.121a4.742,4.742,0,1,0-4.122-4.7A4.446,4.446,0,0,0,185.556,70.121Zm0-7.535a2.908,2.908,0,1,1-2.255,2.834A2.6,2.6,0,0,1,185.556,62.586Zm0,0" transform="translate(-160.333 -53.328)" fill="#fff"/><path d="M267.684,145.217a4.158,4.158,0,1,0,4.123-4.7A4.445,4.445,0,0,0,267.684,145.217Zm6.378,0a2.315,2.315,0,1,1-2.256-2.834A2.6,2.6,0,0,1,274.062,145.217Zm0,0" transform="translate(-236.552 -123.721)" fill="#fff"/><path d="M49.88,271.123a4.7,4.7,0,0,0-6.21-1.9l-7.292,3.455a5.938,5.938,0,0,0-5.064-3.133l-6.732-.186a7.1,7.1,0,0,1-3.06-.792l-.685-.356a12.052,12.052,0,0,0-11.191.012l.043-1.556a.932.932,0,0,0-.9-.959l-7.382-.2a.932.932,0,0,0-.956.907L0,282.658a.932.932,0,0,0,.9.959l7.382.2h.026a.933.933,0,0,0,.93-.908l.021-.777,1.918-1.03a3.283,3.283,0,0,1,2.455-.269l11.451,3.223.06.015a12.224,12.224,0,0,0,2.517.26,12.392,12.392,0,0,0,5.189-1.135.913.913,0,0,0,.115-.063l16.6-10.77a.935.935,0,0,0,.3-1.243ZM1.888,281.776,2.282,267.4l5.521.152-.395,14.378Zm30.129-.245a10.524,10.524,0,0,1-6.454.722l-11.421-3.214a5.133,5.133,0,0,0-3.837.421l-.98.526.263-9.56a10.207,10.207,0,0,1,10.395-.556l.685.356a8.966,8.966,0,0,0,3.865,1l6.732.186a4.085,4.085,0,0,1,3.88,3.262L25.116,274.4a.934.934,0,0,0-.051,1.867l11.066.305h.026a.933.933,0,0,0,.93-.908,5.973,5.973,0,0,0-.09-1.211l7.478-3.544.022-.01a2.837,2.837,0,0,1,3.216.451Zm0,0" transform="translate(0 -233.989)" fill="#fff"/></g></svg>