<svg xmlns="http://www.w3.org/2000/svg" width="44.857" height="11.428" viewBox="0 0 44.857 11.428"><path d="M350.988,221.2h-2.43a.475.475,0,0,0-.357.286l-1,6.289a.19.19,0,0,0,.214.214H348.7a.19.19,0,0,0,.214-.214l.286-1.787a.327.327,0,0,1,.357-.286h.786a2.49,2.49,0,0,0,2.787-2.358,1.873,1.873,0,0,0-.286-1.572,2.883,2.883,0,0,0-1.858-.572m.286,2.358c-.143.858-.786.858-1.429.858h-.429l.286-1.644c0-.071.071-.143.214-.143h.143c.429,0,.858,0,1.072.286.143.071.143.286.143.643" transform="translate(-316.316 -218.276)" fill="#139ad6"/><g transform="translate(13.44 2.924)"><path d="M154.988,221.2h-2.43a.475.475,0,0,0-.357.286l-1,6.289a.19.19,0,0,0,.214.214h1.143a.475.475,0,0,0,.357-.286l.286-1.715a.327.327,0,0,1,.357-.286h.786a2.49,2.49,0,0,0,2.787-2.358,1.873,1.873,0,0,0-.286-1.572,2.747,2.747,0,0,0-1.858-.572m.286,2.358c-.143.858-.786.858-1.429.858h-.357l.286-1.644c0-.071.071-.143.214-.143h.143c.429,0,.858,0,1.072.286a.765.765,0,0,1,.071.643" transform="translate(-151.2 -221.2)" fill="#263b80"/><path d="M219.447,245.343H218.3c-.071,0-.214.071-.214.143l-.071.357-.071-.143a1.681,1.681,0,0,0-1.358-.5,2.746,2.746,0,0,0-2.644,2.358,2.13,2.13,0,0,0,.429,1.787,1.8,1.8,0,0,0,1.5.572,2.284,2.284,0,0,0,1.644-.643l-.071.357a.19.19,0,0,0,.214.214h1.072a.475.475,0,0,0,.357-.286l.643-4c-.071-.071-.214-.214-.286-.214M217.8,247.63a1.382,1.382,0,0,1-1.358,1.143,1.143,1.143,0,0,1-.786-.286,1.524,1.524,0,0,1-.214-.858,1.275,1.275,0,0,1,2.073-.858,1.248,1.248,0,0,1,.286.858" transform="translate(-208.298 -243.056)" fill="#263b80"/></g><path d="M414.647,245.343H413.5c-.071,0-.214.071-.214.143l-.071.357-.071-.143a1.681,1.681,0,0,0-1.358-.5,2.746,2.746,0,0,0-2.644,2.358,2.13,2.13,0,0,0,.429,1.787,1.8,1.8,0,0,0,1.5.572,2.284,2.284,0,0,0,1.644-.643l-.071.357a.189.189,0,0,0,.214.214h1.072a.475.475,0,0,0,.357-.286l.643-4c-.071-.071-.143-.214-.286-.214M413,247.63a1.382,1.382,0,0,1-1.358,1.143,1.143,1.143,0,0,1-.786-.286,1.524,1.524,0,0,1-.214-.858,1.275,1.275,0,0,1,2.073-.858.82.82,0,0,1,.286.858" transform="translate(-372.72 -240.132)" fill="#139ad6"/><path d="M289.5,246.8h-1.215a.371.371,0,0,0-.286.143l-1.572,2.43-.715-2.287a.33.33,0,0,0-.357-.214h-1.143c-.143,0-.214.143-.214.286l1.286,3.788-1.215,1.715c-.071.143,0,.357.143.357h1.143a.371.371,0,0,0,.286-.143l3.931-5.646c.214-.214.071-.429-.072-.429" transform="translate(-258.737 -241.589)" fill="#263b80"/><path d="M476.2,221.857l-1,6.432a.19.19,0,0,0,.214.214h1a.475.475,0,0,0,.357-.286l1-6.289a.19.19,0,0,0-.214-.214h-1.143c-.071-.071-.143,0-.214.143" transform="translate(-432.916 -218.719)" fill="#139ad6"/><path d="M8.219,188.451A3.548,3.548,0,0,0,5.5,187.6H1.93a.612.612,0,0,0-.5.426L0,197.316a.325.325,0,0,0,.286.355H2.5l.572-3.475v.142a.612.612,0,0,1,.5-.426H4.645c2.073,0,3.645-.851,4.145-3.191v-.213h0a2.464,2.464,0,0,0-.572-2.057" transform="translate(0 -187.6)" fill="#263b80"/><path d="M32.032,220.4h0v.214c-.5,2.43-2.073,3.216-4.145,3.216H26.815a.613.613,0,0,0-.5.429l-.715,4.36a.262.262,0,0,0,.286.286h1.858a.4.4,0,0,0,.429-.357v-.071l.357-2.215v-.143a.4.4,0,0,1,.429-.357h.286c1.787,0,3.216-.715,3.573-2.859a2.627,2.627,0,0,0-.357-2.144.732.732,0,0,0-.429-.357" transform="translate(-23.313 -217.548)" fill="#139ad6"/><path d="M39.546,215.814c-.071,0-.143-.071-.214-.071a.263.263,0,0,1-.214-.071,3.777,3.777,0,0,0-.929-.071H35.4a.263.263,0,0,0-.214.071.393.393,0,0,0-.214.357l-.572,3.716v.143a.613.613,0,0,1,.5-.429h1.072c2.073,0,3.645-.858,4.145-3.216a.263.263,0,0,1,.071-.214c-.143-.071-.214-.143-.357-.143-.214-.071-.214-.071-.286-.071" transform="translate(-31.327 -213.126)" fill="#232c65"/></svg>