<svg xmlns="http://www.w3.org/2000/svg" width="21.998" height="22" viewBox="0 0 21.998 22"><g transform="translate(-0.023 -1)"><g transform="translate(0.023 1)"><g transform="translate(0 0)"><path d="M21.986,16.417a1.817,1.817,0,0,0-.809-1.179,1.93,1.93,0,0,0-2.142.048L12,1.6a1.1,1.1,0,0,0-1.959,0L3.008,15.287a1.933,1.933,0,0,0-2.142-.049,1.817,1.817,0,0,0-.808,1.179,1.78,1.78,0,0,0,.285,1.372A13.358,13.358,0,0,0,11.021,23c.162,0,.32,0,.479-.01a.477.477,0,0,0,.081,0,13.348,13.348,0,0,0,10.119-5.2A1.78,1.78,0,0,0,21.986,16.417ZM10.694,1.933a.378.378,0,0,1,.654,0l7.146,13.909a9.676,9.676,0,0,1-7.473,3.49,9.537,9.537,0,0,1-7.473-3.49ZM21.1,17.372a12.567,12.567,0,0,1-9.6,4.884h-.023c-.143,0-.286.009-.432.01h-.033A12.578,12.578,0,0,1,.946,17.372a1.05,1.05,0,0,1-.17-.811,1.09,1.09,0,0,1,.488-.706,1.186,1.186,0,0,1,.642-.188,1.17,1.17,0,0,1,.962.493,10.282,10.282,0,0,0,8.153,3.907,10.2,10.2,0,0,0,8.151-3.9,1.184,1.184,0,0,1,1.606-.307,1.09,1.09,0,0,1,.488.706A1.049,1.049,0,0,1,21.1,17.372Z" transform="translate(-0.023 -1)" fill="#45484d"/><path d="M138.724,287.035a2.2,2.2,0,1,0-2.2-2.2A2.2,2.2,0,0,0,138.724,287.035Zm0-3.666a1.467,1.467,0,1,1-1.467,1.467A1.467,1.467,0,0,1,138.724,283.368Z" transform="translate(-130.659 -270.534)" fill="#45484d"/><path d="M264.524,250.7a2.2,2.2,0,1,0,2.2-2.2A2.2,2.2,0,0,0,264.524,250.7Zm2.2-1.467a1.467,1.467,0,1,1-1.467,1.467A1.467,1.467,0,0,1,266.724,249.234Z" transform="translate(-253.16 -237.867)" fill="#45484d"/><path d="M215.157,149.767a1.833,1.833,0,1,0-1.833-1.833A1.833,1.833,0,0,0,215.157,149.767Zm0-2.933a1.1,1.1,0,1,1-1.1,1.1A1.1,1.1,0,0,1,215.157,146.834Z" transform="translate(-204.159 -139.867)" fill="#45484d"/><path d="M247.716,363.818a.367.367,0,0,0-.536.415.367.367,0,0,1-.257.45.362.362,0,0,1-.279-.037.367.367,0,0,1-.172-.22.367.367,0,1,0-.707.192,1.1,1.1,0,1,0,2.122-.579A.367.367,0,0,0,247.716,363.818Z" transform="translate(-235.192 -348.183)" fill="#45484d"/><path d="M177.38,220.964a1.093,1.093,0,0,0,.587.171,1.115,1.115,0,0,0,.243-.027,1.094,1.094,0,0,0,.689-.485.367.367,0,0,0-.62-.392.367.367,0,1,1-.619-.393.367.367,0,0,0-.62-.393,1.1,1.1,0,0,0,.34,1.518Z" transform="translate(-169.27 -209.897)" fill="#45484d"/><path d="M230.816,87.533a.362.362,0,0,0,.4-.327.367.367,0,1,1,.73.076.367.367,0,0,0,.327.4h.037a.367.367,0,0,0,.364-.33,1.1,1.1,0,1,0-2.188-.226.367.367,0,0,0,.327.4Z" transform="translate(-220.586 -82.476)" fill="#45484d"/></g></g></g></svg>