<svg xmlns="http://www.w3.org/2000/svg" width="25" height="22" viewBox="0 0 25 22"><g transform="translate(0 0)"><path d="M24.727,10.472a1,1,0,0,0-.73-.318h-.082a4.217,4.217,0,0,0-1.964-5.99,4.219,4.219,0,0,0-8.437,0,1.146,1.146,0,0,0-1.21.459l-.105.15a.312.312,0,0,1-.385.1L11.649,4.8a1.155,1.155,0,0,0-1.637.946L10,5.925a1.06,1.06,0,0,1-.072.253.311.311,0,0,1-.176-.254l-.016-.181a1.13,1.13,0,0,0-.493-.837l1.329-1.889A1.69,1.69,0,1,0,7.8,1.068L5.373,4.526a1.682,1.682,0,0,0-.191.369.261.261,0,0,1-.124-.022L4.893,4.8a1.155,1.155,0,0,0-1.637.946l-.016.182a.312.312,0,0,1-.282.283l-.182.016a1.158,1.158,0,0,0-.945,1.641l.076.165a.312.312,0,0,1-.1.386l-.149.105A1.145,1.145,0,0,0,1.4,10.153H1a1,1,0,0,0-.73.318,1.017,1.017,0,0,0-.27.76c.25,3.7,2.6,5.559,6.05,7.21a1.969,1.969,0,0,1,.9.864,1.28,1.28,0,0,1-.082,1.235A.962.962,0,0,0,7.689,22h9.622a.962.962,0,0,0,.818-1.466,1.274,1.274,0,0,1-.078-1.227,1.966,1.966,0,0,1,.9-.864c3.45-1.651,5.8-3.509,6.05-7.21a1.022,1.022,0,0,0-.27-.76ZM23.644,8.038a3.377,3.377,0,0,1-.746,2.116H20.689V8.461a.422.422,0,1,0-.845,0v1.692H18.353a1.172,1.172,0,0,0,.09-.146l0-.006a1.179,1.179,0,0,0,.085-.227c.005-.019.01-.039.014-.059a1.136,1.136,0,0,0-.46-1.192l-.1-.069c.034,0,.066-.008.1-.01.051,0,.1-.009.152-.016q.125-.015.247-.038c.048-.009.1-.017.144-.028.088-.019.174-.043.26-.067.038-.011.077-.02.115-.032.12-.039.238-.081.353-.13.032-.014.063-.03.094-.044.084-.038.167-.076.247-.12.045-.024.089-.05.133-.076.064-.038.129-.076.191-.117.047-.03.092-.062.137-.094s.113-.083.168-.126.09-.071.133-.108.1-.091.151-.138.086-.079.127-.121.09-.1.135-.149c.084-.094.163-.192.239-.294.027-.036.055-.071.081-.108.046-.066.088-.135.13-.2.021-.035.043-.069.063-.1.043-.074.082-.15.12-.226.015-.03.03-.06.044-.091.039-.084.076-.169.11-.256l.021-.057a4.194,4.194,0,0,0,.185-.637,3.387,3.387,0,0,1,1.773,2.974ZM17.733.846a3.385,3.385,0,0,1,3.378,3.385c0,.064-.005.127-.009.19a.012.012,0,0,0,0,0,3.364,3.364,0,0,1-.315,1.246l-.005.011c-.041.088-.087.172-.135.256l-.017.03c-.045.076-.094.149-.145.221l-.033.046c-.048.065-.1.128-.151.189l-.049.058c-.049.056-.1.109-.155.161l-.066.066c-.051.047-.1.092-.158.136-.027.023-.055.046-.083.068-.052.04-.105.077-.159.114-.033.022-.065.045-.1.066-.053.033-.107.063-.162.094-.037.021-.074.042-.112.062-.053.027-.108.051-.163.075s-.083.038-.126.055-.109.039-.163.058-.091.032-.138.045-.108.028-.163.04-.1.024-.151.034-.106.016-.159.024-.109.016-.163.021L18,7.6h0c0-.005,0-.011,0-.016a1.162,1.162,0,0,0,.017-.231c0-.025,0-.049-.005-.074a1.19,1.19,0,0,0-.03-.18c-.006-.024-.01-.047-.018-.071a1.135,1.135,0,0,0-1-.805l-.182-.017a.311.311,0,0,1-.253-.176l.9-.9a.423.423,0,1,0-.6-.6l-.6.6a1.072,1.072,0,0,0-.59-.4c-.031-.009-.063-.01-.095-.015a1.1,1.1,0,0,0-.19-.025c-.008,0-.016,0-.024,0a1.112,1.112,0,0,0-.144.016c-.03,0-.06,0-.09.01a1.154,1.154,0,0,0-.252.082l-.165.077a.287.287,0,0,1-.132.025h-.007a.306.306,0,0,1-.129-.038A3.372,3.372,0,0,1,17.733.846ZM10.837,6l.017-.182a.311.311,0,0,1,.441-.255l.167.077a1.156,1.156,0,0,0,1.43-.384L13,5.108a.32.32,0,0,1,.509,0l.105.15a1.151,1.151,0,0,0,.911.486h.012a1.182,1.182,0,0,0,.154-.006c.024,0,.048-.008.072-.012s.069-.011.1-.02a1.109,1.109,0,0,0,.179-.064l.165-.077a.311.311,0,0,1,.44.255L15.662,6a1.157,1.157,0,0,0,1.047,1.049l.182.017a.312.312,0,0,1,.255.441l-.078.168c0,.008,0,.014-.008.022a1.157,1.157,0,0,0,.059,1.04l.008.013a1.152,1.152,0,0,0,.074.111c.015.02.031.038.047.057s.04.048.063.07a1.083,1.083,0,0,0,.14.118l.15.106a.314.314,0,0,1,0,.511l-.15.106,0,0a1.125,1.125,0,0,0-.152.132c-.019.019-.035.041-.052.061a1.132,1.132,0,0,0-.072.093c-.008.012-.019.023-.027.036H11.6a1.2,1.2,0,0,0,.091-.147l0-.006a1.184,1.184,0,0,0,.086-.228c.006-.019.01-.038.014-.058a1.156,1.156,0,0,0,.03-.245h0a1.185,1.185,0,0,0-.019-.159,1.1,1.1,0,0,0-.014-.117,1.291,1.291,0,0,0-.457-.671l-.149-.106a.311.311,0,0,1-.1-.385l.077-.166a1.152,1.152,0,0,0,.081-.252c.006-.026.006-.052.009-.078a1.149,1.149,0,0,0,.013-.182c0-.032-.006-.063-.009-.095a1.16,1.16,0,0,0-.027-.162c-.009-.035-.021-.068-.032-.1s-.015-.057-.027-.084-.02-.029-.028-.045-.016-.045-.028-.066a1.1,1.1,0,0,0-.079-.106c-.022-.03-.042-.061-.066-.088a1.129,1.129,0,0,0-.17-.151c-.018-.014-.032-.033-.051-.045A1.8,1.8,0,0,0,10.837,6ZM8.5,1.555a.845.845,0,0,1,1.381.975L8.229,4.872h0L7.444,5.989a.846.846,0,0,1-1.176.2l0,0a.842.842,0,0,1-.157-.15C6.1,6.027,6.086,6.013,6.075,6a.856.856,0,0,1-.1-.177l-.006-.012A.858.858,0,0,1,5.92,5.6c0-.018,0-.036,0-.055a.815.815,0,0,1,.148-.53Zm-6.2,8.273-.15-.105a.313.313,0,0,1,0-.51l.149-.105a1.159,1.159,0,0,0,.384-1.434L2.6,7.509a.312.312,0,0,1,.255-.442l.181-.016A1.156,1.156,0,0,0,4.081,6L4.1,5.819a.311.311,0,0,1,.44-.255l.166.077a1.1,1.1,0,0,0,.379.1c0,.009,0,.018.007.027s0,.015,0,.022c.008.048.026.093.039.14s.025.11.045.163a1.777,1.777,0,0,0,.085.18c.02.04.036.081.06.119a1.687,1.687,0,0,0,.143.189c.022.026.039.054.061.079a1.683,1.683,0,0,0,.258.225,1.71,1.71,0,0,0,.262.149c.029.013.058.024.088.035a1.565,1.565,0,0,0,.2.065c.034.009.067.017.1.024a1.7,1.7,0,0,0,.216.027c.027,0,.054.006.081.006l.021,0a1.712,1.712,0,0,0,.293-.025,1.678,1.678,0,0,0,1.092-.691l.621-.883a.3.3,0,0,1,.134.227L8.906,6A1.157,1.157,0,0,0,9.953,7.049l.182.016a.435.435,0,0,1,.156.064.535.535,0,0,1,.09.106.311.311,0,0,1,.037.125s0,0,0,.006a.308.308,0,0,1-.028.14l-.077.166a1.155,1.155,0,0,0-.1.592.054.054,0,0,1,0,.008,1.191,1.191,0,0,0,.033.187,1.153,1.153,0,0,0,.451.647l.1.072.047.033a.314.314,0,0,1,.133.257.308.308,0,0,1-.035.144c-.006.013-.02.02-.028.032a.305.305,0,0,1-.07.079l-.006,0-.144.1a1.158,1.158,0,0,0-.16.139c-.015.016-.027.033-.041.049a1.216,1.216,0,0,0-.09.116c0,.007-.011.013-.015.019H2.6a1.159,1.159,0,0,0-.308-.325Zm16.292,7.849A2.82,2.82,0,0,0,17.3,18.917a2.129,2.129,0,0,0,.109,2.06.117.117,0,0,1-.1.177H7.688a.111.111,0,0,1-.1-.059.116.116,0,0,1,.006-.125,2.125,2.125,0,0,0,.1-2.053,2.815,2.815,0,0,0-1.282-1.239c-3.274-1.566-5.348-3.2-5.571-6.5a.167.167,0,0,1,.044-.126A.15.15,0,0,1,1,11H24a.152.152,0,0,1,.113.05.166.166,0,0,1,.044.126c-.223,3.3-2.3,4.936-5.571,6.5Zm0,0" transform="translate(0 0)" fill="#45484d"/><path d="M240.114,371.824h-3.684a.423.423,0,0,0,0,.846h3.684a.423.423,0,1,0,0-.846Zm0,0" transform="translate(-224.489 -353.632)" fill="#45484d"/><path d="M182.013,372.67h1.432a.423.423,0,0,0,0-.846h-1.432a.423.423,0,0,0,0,.846Zm0,0" transform="translate(-172.725 -353.632)" fill="#45484d"/><path d="M188.359,397.766h-6.346a.423.423,0,0,0,0,.846h6.346a.423.423,0,1,0,0-.846Zm0,0" transform="translate(-172.73 -378.305)" fill="#45484d"/><path d="M319.163,43.061a.423.423,0,0,0,.6-.6l-1.2-1.2a.423.423,0,1,0-.6.6Zm0,0" transform="translate(-302.325 -39.13)" fill="#45484d"/><path d="M368.072,91.968a.423.423,0,0,0,.6-.6l-1.2-1.2a.423.423,0,0,0-.6.6Zm0,0" transform="translate(-348.847 -85.644)" fill="#45484d"/><path d="M367.183,43.185a.423.423,0,0,0,.3-.124l1.2-1.2a.423.423,0,1,0-.6-.6l-1.2,1.2a.423.423,0,0,0,.3.722Zm0,0" transform="translate(-348.855 -39.13)" fill="#45484d"/><path d="M423.711,147.423a.422.422,0,0,0,.423.423h1.692a.423.423,0,1,0,0-.846h-1.692A.423.423,0,0,0,423.711,147.423Zm0,0" transform="translate(-403.031 -139.808)" fill="#45484d"/><path d="M255.514,131.186a.422.422,0,0,0,.3-.124l.635-.635a.423.423,0,1,0-.6-.6l-.634.635a.423.423,0,0,0,.3.722Zm0,0" transform="translate(-242.638 -123.36)" fill="#45484d"/><path d="M294.549,156.792a.423.423,0,0,0,.6-.6l-.423-.423a.423.423,0,1,0-.6.6Zm0,0" transform="translate(-279.649 -148.032)" fill="#45484d"/><path d="M259.96,173.064l-.423.423a.423.423,0,1,0,.6.6l.423-.423a.423.423,0,0,0-.6-.6Zm0,0" transform="translate(-246.747 -164.479)" fill="#45484d"/></g></svg>