<svg xmlns="http://www.w3.org/2000/svg" width="21" height="22" viewBox="0 0 21 22"><g transform="translate(-17.067)"><g transform="translate(17.067 0)"><g transform="translate(0)"><path d="M25.867,6.233V5.5a.734.734,0,0,0-.733-.733H24.026a10.246,10.246,0,0,0-1.2-4.412.732.732,0,0,0-1.254,0,10.243,10.243,0,0,0-1.2,4.412H19.267a.734.734,0,0,0-.733.733v.733a.732.732,0,0,0,.408.654c-.669.97-1.875,3.286-1.875,7.413a28.318,28.318,0,0,0,.279,3.721c.338,2.253.923,3.528,1.777,3.877l.006,0a1.319,1.319,0,0,0,.146.05c.022.006.044.01.066.015s.07.016.105.021a1.355,1.355,0,0,0,.188.014h5.133a1.346,1.346,0,0,0,.188-.014c.036,0,.071-.014.107-.021s.043-.009.064-.015a1.321,1.321,0,0,0,.148-.051h0c.855-.348,1.44-1.623,1.779-3.877a28.318,28.318,0,0,0,.279-3.721c0-4.127-1.205-6.443-1.875-7.413A.732.732,0,0,0,25.867,6.233ZM22.2.735a9.426,9.426,0,0,1,1.092,4.032H21.108A9.418,9.418,0,0,1,22.2.735ZM19.267,5.5h5.867v.733H19.267Zm5.687,15.733-.017.005a.561.561,0,0,1-.171.028H19.634a.561.561,0,0,1-.17-.028l-.018-.005c-.412-.145-.781-.767-1.064-1.8h7.636C25.735,20.466,25.366,21.088,24.954,21.233ZM26.6,14.3a23.433,23.433,0,0,1-.408,4.4H18.209a23.462,23.462,0,0,1-.408-4.4c0-4.606,1.592-6.838,2-7.333h4.8C25.011,7.458,26.6,9.669,26.6,14.3Z" transform="translate(-17.067 0)" fill="#45484d"/><path d="M59.84,247.574a.366.366,0,0,0-.107.259v4.4a.366.366,0,0,0,.367.367h5.867a.367.367,0,0,0,.367-.367v-4.4a.366.366,0,0,0-.367-.367H60.1A.366.366,0,0,0,59.84,247.574Zm.626.626H65.6v3.667H60.466Z" transform="translate(-57.9 -236.834)" fill="#45484d"/><path d="M97.167,315.733H94.234a.367.367,0,1,0,0,.733h2.933a.367.367,0,0,0,0-.733Z" transform="translate(-90.476 -302.166)" fill="#45484d"/><path d="M111.3,282.334h1.467a.367.367,0,1,0,0-.733H111.3a.367.367,0,1,0,0,.733Z" transform="translate(-106.798 -269.501)" fill="#45484d"/><path d="M314.3,5.439h-.136v-.5a.965.965,0,0,0-.964-.964h-.51A6.006,6.006,0,0,0,311.819.6a.752.752,0,0,0-1.171,0,6.009,6.009,0,0,0-.875,3.373h-.51a.965.965,0,0,0-.964.964v.5h-.136a.965.965,0,0,0-.964.964v14.8a1.1,1.1,0,0,0,1.1,1.1h5.867a1.1,1.1,0,0,0,1.1-1.1V6.4A.965.965,0,0,0,314.3,5.439Zm-3.07-4.4a5.689,5.689,0,0,1,.727,2.931h-1.454A5.684,5.684,0,0,1,311.233,1.041Zm-2.2,3.895a.23.23,0,0,1,.23-.23h3.94a.23.23,0,0,1,.23.23v.5h-4.4Zm-1.1,1.467a.23.23,0,0,1,.23-.23h6.14a.23.23,0,0,1,.23.23v4.536h-6.6Zm6.6,14.8a.367.367,0,0,1-.367.367H308.3a.367.367,0,0,1-.367-.367v-4.4h6.6Zm0-5.133h-6.6v-4.4h6.6Z" transform="translate(-294.267 -0.305)" fill="#45484d"/><path d="M371.268,287.558a.734.734,0,0,0,1.037,0l.581-.581a.734.734,0,0,0,0-1.037l-.581-.581a.734.734,0,0,0-1.037,0l-.581.581a.734.734,0,0,0,0,1.037Zm.519-1.681.581.581h0l-.581.581-.581-.581Z" transform="translate(-354.82 -272.891)" fill="#45484d"/><path d="M342.067,428.867h1.1a.367.367,0,1,0,0-.733h-1.1v-1.1a.367.367,0,1,0-.733,0v1.1A.734.734,0,0,0,342.067,428.867Z" transform="translate(-327.046 -408.334)" fill="#45484d"/><path d="M411.067,153.6h-1.1a.367.367,0,0,0,0,.733h1.1v1.1a.367.367,0,0,0,.733,0v-1.1A.734.734,0,0,0,411.067,153.6Z" transform="translate(-392.267 -147)" fill="#45484d"/></g></g></g></svg>