<svg xmlns="http://www.w3.org/2000/svg" width="18" height="23" viewBox="0 0 18 23"><g transform="translate(-48.55 0)"><path d="M66.55,19.934l-1.3-14.916a.56.56,0,0,0-.56-.519H61.961a4.412,4.412,0,1,0-8.823,0H50.406a.567.567,0,0,0-.56.519l-1.3,14.916v.052A3.191,3.191,0,0,0,51.884,23H63.216a3.191,3.191,0,0,0,3.334-3.014Zm-9-18.791A3.332,3.332,0,0,1,60.842,4.5H54.258A3.332,3.332,0,0,1,57.55,1.143Zm5.666,20.71H51.884a2.07,2.07,0,0,1-2.215-1.847l1.25-14.364h2.22v2a.56.56,0,1,0,1.119,0v-2h6.584v2a.56.56,0,1,0,1.119,0v-2h2.22l1.25,14.368A2.07,2.07,0,0,1,63.216,21.853Z" transform="translate(0)" fill="#fff"/></g></svg>