<svg xmlns="http://www.w3.org/2000/svg" width="50" height="50" viewBox="0 0 50 50"><g transform="translate(-0.001)"><path d="M37.6,0H16.662A3.671,3.671,0,0,0,13,3.671V46.328A3.672,3.672,0,0,0,16.662,50H37.6a3.672,3.672,0,0,0,3.662-3.671V3.671A3.671,3.671,0,0,0,37.6,0ZM14.662,6.667H39.6V38.333H14.662Zm2-5H37.6a2,2,0,0,1,2,2V5H14.662V3.671A2,2,0,0,1,16.662,1.667ZM37.6,48.333H16.662a2,2,0,0,1-2-2V40H39.6v6.329A2,2,0,0,1,37.6,48.333Z" transform="translate(-2.13)" fill="#fff"/><path d="M29.345,49a3.345,3.345,0,1,0,3.345,3.345A3.348,3.348,0,0,0,29.345,49Zm0,5.017a1.672,1.672,0,1,1,1.672-1.672A1.674,1.674,0,0,1,29.345,54.017Z" transform="translate(-4.344 -8.197)" fill="#fff"/><path d="M25.836,4.672h3.345a.836.836,0,0,0,0-1.672H25.836a.836.836,0,0,0,0,1.672Z" transform="translate(-4.174 -0.492)" fill="#fff"/><path d="M32.836,4.672h.836a.836.836,0,0,0,0-1.672h-.836a.836.836,0,0,0,0,1.672Z" transform="translate(-5.337 -0.492)" fill="#fff"/><path d="M56.332,4.521A.836.836,0,0,0,55.15,5.7a8.022,8.022,0,0,1,0,11.331.836.836,0,1,0,1.182,1.182A9.7,9.7,0,0,0,56.332,4.521Z" transform="translate(-9.163 -0.701)" fill="#fff"/><path d="M52.121,6.8a.836.836,0,1,0-1.182,1.182,5.492,5.492,0,0,1,0,7.757.836.836,0,1,0,1.182,1.182,7.163,7.163,0,0,0,0-10.121Z" transform="translate(-8.473 -1.074)" fill="#fff"/><path d="M4.015,5.7A.836.836,0,1,0,2.833,4.521a9.7,9.7,0,0,0,0,13.7.836.836,0,1,0,1.182-1.182A8.02,8.02,0,0,1,4.015,5.7Z" transform="translate(0 -0.701)" fill="#fff"/><path d="M8.371,6.521a.835.835,0,0,0-1.182,0,7.163,7.163,0,0,0,0,10.121A.836.836,0,1,0,8.371,15.46a5.492,5.492,0,0,1,0-7.757A.837.837,0,0,0,8.371,6.521Z" transform="translate(-0.835 -1.028)" fill="#fff"/></g></svg>