<svg xmlns="http://www.w3.org/2000/svg" width="23" height="22" viewBox="0 0 23 22"><g transform="translate(0 0)"><path d="M74.659,197.771c1.481,0,2.979-.551,2.979-1.6s-1.5-1.6-2.979-1.6-2.979.551-2.979,1.6S73.178,197.771,74.659,197.771Zm0-2.292c1.34,0,2.063.488,2.063.687s-.723.687-2.063.687-2.062-.488-2.062-.687S73.319,195.479,74.659,195.479Zm0,0" transform="translate(-68.472 -185.854)" fill="#45484d"/><path d="M51.658,368.641a.458.458,0,0,0-.458.458v2.75a.458.458,0,1,0,.917,0V369.1A.458.458,0,0,0,51.658,368.641Zm0,0" transform="translate(-48.908 -352.141)" fill="#45484d"/><path d="M51.658,307.2a.458.458,0,0,0-.458.458v1.374a.458.458,0,0,0,.917,0v-1.374A.458.458,0,0,0,51.658,307.2Zm0,0" transform="translate(-48.908 -293.449)" fill="#45484d"/><path d="M307.657,368.641a.458.458,0,0,0-.458.458v2.75a.458.458,0,1,0,.917,0V369.1A.458.458,0,0,0,307.657,368.641Zm0,0" transform="translate(-293.397 -352.141)" fill="#45484d"/><path d="M307.657,307.2a.458.458,0,0,0-.458.458v1.374a.458.458,0,0,0,.917,0v-1.374A.458.458,0,0,0,307.657,307.2Zm0,0" transform="translate(-293.397 -293.449)" fill="#45484d"/><path d="M197.542,33.927c1.48,0,2.979-.551,2.979-1.6s-1.5-1.6-2.979-1.6-2.979.551-2.979,1.6S196.061,33.927,197.542,33.927Zm0-2.292c1.34,0,2.063.488,2.063.687s-.723.687-2.063.687-2.063-.488-2.063-.687S196.2,31.635,197.542,31.635Zm0,0" transform="translate(-185.812 -29.344)" fill="#45484d"/><path d="M310.182,197.771c1.48,0,2.979-.551,2.979-1.6s-1.5-1.6-2.979-1.6-2.979.551-2.979,1.6S308.7,197.771,310.182,197.771Zm0-2.292c1.34,0,2.062.488,2.062.687s-.723.687-2.062.687-2.063-.488-2.063-.687S308.843,195.479,310.182,195.479Zm0,0" transform="translate(-293.37 -185.854)" fill="#45484d"/><path d="M22.993,11.418a1.993,1.993,0,0,0-.095-.737,4.71,4.71,0,0,0-4.5-3.349h-.46V4.216l-.006-.131a1.993,1.993,0,0,0-.095-.737C17.283,1.654,16.55,0,14.259,0H9.2C6.909,0,6.175,1.654,5.62,3.348a1.979,1.979,0,0,0-.094.5H5.52V7.333H3.68C1.389,7.333.656,8.987.1,10.682a1.979,1.979,0,0,0-.094.5H0v7.954A2.87,2.87,0,0,0,2.872,22H9.548a2.864,2.864,0,0,0,1.956-.773A2.873,2.873,0,0,0,13.452,22h6.676A2.87,2.87,0,0,0,23,19.138V11.549ZM18.4,8.25a3.8,3.8,0,0,1,3.624,2.717,1.087,1.087,0,0,1,.044.477l0,.018a1.072,1.072,0,0,1-.024.106c-.007.03-.015.06-.025.09a1.033,1.033,0,0,1-.046.112,1.164,1.164,0,0,1-.068.122c-.017.027-.034.054-.053.079a1.024,1.024,0,0,1-.13.141c-.014.013-.029.024-.044.036a1.016,1.016,0,0,1-.147.1l-.042.022a.982.982,0,0,1-.179.067l-.036.011a1.016,1.016,0,0,1-.232.027h-8.5a.971.971,0,0,1-.121-.013v-.813l-.006-.131a2.061,2.061,0,0,0-.006-.3c0-.019-.005-.037-.008-.056a2.011,2.011,0,0,0-.081-.379c-.1-.3-.2-.6-.322-.89.011-.031.019-.06.029-.091s.027-.083.039-.123c.019-.066.036-.129.051-.191.008-.035.017-.07.024-.1.014-.068.026-.132.036-.195,0-.024.009-.048.012-.071.012-.082.023-.159.032-.229.069-.538.069-.538.66-.538ZM6.5,3.633c.59-1.8,1.17-2.716,2.7-2.716h5.06c1.534,0,2.115.915,2.7,2.716a1.087,1.087,0,0,1,.044.478l0,.018c-.005.035-.015.07-.024.105s-.015.061-.026.091a1.12,1.12,0,0,1-.045.111,1.144,1.144,0,0,1-.069.123c-.017.027-.034.054-.053.079a1.025,1.025,0,0,1-.13.141c-.014.013-.029.024-.044.036a1.011,1.011,0,0,1-.147.1l-.042.023A.98.98,0,0,1,16.247,5l-.036.011a1.054,1.054,0,0,1-.232.027H7.48a1.039,1.039,0,0,1-.233-.027c-.013,0-.024-.008-.036-.012a1.031,1.031,0,0,1-.179-.066l-.042-.022a1.016,1.016,0,0,1-.147-.1c-.015-.012-.03-.023-.044-.036a1.1,1.1,0,0,1-.13-.141c-.019-.025-.036-.052-.053-.079a1.047,1.047,0,0,1-.069-.123A1.168,1.168,0,0,1,6.5,4.324c-.011-.03-.018-.06-.026-.091a1,1,0,0,1-.024-.105l0-.018A1.093,1.093,0,0,1,6.5,3.633ZM6.44,5.659c.024.015.051.027.075.041s.079.045.121.065.066.03.1.044.093.036.14.052c.032.01.064.021.1.029.054.015.11.026.166.036.028,0,.055.011.084.015a2.034,2.034,0,0,0,.26.018h8.5a2.034,2.034,0,0,0,.26-.018c.028,0,.056-.01.084-.015.056-.01.111-.021.165-.036.033-.009.065-.019.1-.029.048-.016.094-.033.14-.052s.067-.028.1-.044.081-.042.12-.065.052-.026.075-.041V7.333h-4.14a3.2,3.2,0,0,0-.425.027c-.043.006-.075.017-.115.024a1.93,1.93,0,0,0-.222.051,1.018,1.018,0,0,0-.106.046,1.2,1.2,0,0,0-.154.073.91.91,0,0,0-.086.066.937.937,0,0,0-.109.092.894.894,0,0,0-.065.082,1.038,1.038,0,0,0-.076.109c-.018.031-.032.064-.047.1a1.307,1.307,0,0,0-.051.122c-.012.035-.023.072-.032.109s-.024.088-.033.134-.016.08-.022.12c0,.023-.009.045-.013.069q-.1-.128-.2-.245L11.114,8.3a3.05,3.05,0,0,0-.226-.223l-.009-.008a2.888,2.888,0,0,0-.251-.2l-.016-.01a2.753,2.753,0,0,0-.274-.166l-.028-.015a2.808,2.808,0,0,0-.292-.13L9.97,7.534a3.123,3.123,0,0,0-.3-.091l-.073-.019c-.1-.023-.211-.04-.322-.054l-.09-.013c-.141-.014-.288-.023-.443-.023H6.44ZM.975,10.966c.59-1.8,1.17-2.717,2.7-2.717h5.06a3.068,3.068,0,0,1,.485.039c.039.006.075.015.113.022a2.222,2.222,0,0,1,.324.091c.034.012.069.024.1.038a1.865,1.865,0,0,1,.306.168c.018.012.038.021.055.033a2.062,2.062,0,0,1,.294.264c.043.046.083.1.124.152s.094.119.139.185.087.138.13.211.075.134.112.2.081.16.12.247.08.184.119.282c.028.07.057.136.085.211.067.18.133.366.2.568a1.069,1.069,0,0,1,.051.284c0,.017,0,.034,0,.051a1.086,1.086,0,0,1-.023.227c0,.013-.006.026-.009.038s0,.009,0,.013a1.082,1.082,0,0,1-.094.237l-.014.025a1.107,1.107,0,0,1-.175.23l-.064.063-.016.013a1.016,1.016,0,0,1-.147.1l-.042.022a.982.982,0,0,1-.179.066l-.036.012a1.074,1.074,0,0,1-.234.027H1.96a1.029,1.029,0,0,1-.233-.027c-.013,0-.024-.008-.036-.011a1.053,1.053,0,0,1-.179-.066l-.042-.023a1,1,0,0,1-.147-.1c-.015-.012-.03-.023-.044-.036a1.1,1.1,0,0,1-.13-.141c-.019-.025-.036-.052-.053-.079a1.025,1.025,0,0,1-.069-.123,1.138,1.138,0,0,1-.045-.111c-.011-.03-.018-.06-.026-.091a1.052,1.052,0,0,1-.024-.105l0-.018a1.091,1.091,0,0,1,.045-.477ZM9.547,21.083H2.872A1.951,1.951,0,0,1,.92,19.138V12.992c.024.015.051.027.075.041s.08.045.121.065.066.03.1.044.093.036.14.052c.032.011.064.021.1.029.054.015.11.026.166.036.028.005.055.011.084.015a2.107,2.107,0,0,0,.26.018h8.5a2,2,0,0,0,.26-.018c.029,0,.056-.01.084-.015.056-.01.111-.021.166-.036.033-.009.064-.019.1-.029.048-.016.094-.033.14-.052s.067-.028.1-.044.081-.042.12-.065.052-.026.075-.041v6.148a1.938,1.938,0,0,1-.035.345c-.009.047-.022.093-.034.138s-.034.119-.055.177-.045.117-.073.174c-.016.034-.036.067-.055.1a2.046,2.046,0,0,1-.121.2l0,.006a1.949,1.949,0,0,1-1.575.806Zm12.532-1.945a1.951,1.951,0,0,1-1.952,1.945H13.452A1.923,1.923,0,0,1,12.07,20.5a2.849,2.849,0,0,0,.25-.632c.006-.02.011-.041.016-.061.021-.086.038-.174.051-.263,0-.026.009-.051.012-.077a2.95,2.95,0,0,0,.021-.333V13.287c.04,0,.081,0,.121,0h8.5a2.032,2.032,0,0,0,.26-.018c.029,0,.056-.01.084-.015.056-.01.111-.021.166-.036.033-.009.064-.019.1-.029.048-.016.094-.033.14-.052s.067-.028.1-.044.081-.042.12-.065.052-.026.075-.041v6.146h0Zm0,0" fill="#45484d"/></g></svg>