<svg xmlns="http://www.w3.org/2000/svg" width="42" height="12.857" viewBox="0 0 42 12.857"><path d="M46.823,175.373v.2c4.292,1.032,7.272,3.642,8.452,6.64l-1.24-5.777a1.47,1.47,0,0,0-1.577-1.065Z" transform="translate(-46.823 -175.172)" fill="#f7981d"/><g transform="translate(3.719)"><path d="M175.483,187.829l2.113-12.456h3.42L178.9,187.829Z" transform="translate(-164.16 -175.172)" fill="#293688"/><path d="M231.507,174.17a8.9,8.9,0,0,0-3.066-.523c-3.38,0-5.762,1.69-5.782,4.111-.019,1.789,1.7,2.788,3,3.384,1.331.609,1.779,1,1.773,1.545-.008.835-1.064,1.217-2.047,1.217a7.228,7.228,0,0,1-3.22-.654l-.441-.2-.48,2.788a10.894,10.894,0,0,0,3.811.665c3.6,0,5.93-1.67,5.957-4.256.013-1.417-.9-2.5-2.872-3.384-1.2-.576-1.928-.96-1.92-1.544,0-.518.62-1.071,1.959-1.071a6.352,6.352,0,0,1,2.561.477l.306.144.465-2.7Z" transform="translate(-204.55 -173.647)" fill="#293688"/><path d="M307.53,175.373a1.7,1.7,0,0,0-1.772,1.061l-5.069,11.4h3.622l.7-1.909h4.327l.4,1.909h3.22l-2.817-12.456H307.53Zm-1.555,8.055c.283-.717,1.362-3.481,1.362-3.481-.02.033.281-.721.454-1.188l.231,1.073.792,3.6h-2.839Z" transform="translate(-274.682 -175.172)" fill="#293688"/><path d="M83.773,183.911l-.3-1.708a9.735,9.735,0,0,0-4.733-5.223l3.022,10.848h3.622l5.432-12.456H87.194Z" transform="translate(-78.739 -175.172)" fill="#293688"/></g></svg>